<svg width="42" height="56" viewBox="0 0 42 56" fill="none" xmlns="http://www.w3.org/2000/svg">
<path d="M21.2059 40.8832C19.1513 40.8832 17.9656 42.8996 17.9656 45.3889C17.9453 47.9184 19.1707 49.8557 21.1867 49.8557C23.2219 49.8557 24.4079 47.9384 24.4079 45.3305C24.4078 42.8996 23.2615 40.8832 21.2059 40.8832Z" fill="#F5F6FA"/>
<path d="M41.303 13.4196C41.2997 13.1628 41.2183 12.9092 41.0419 12.7087L30.2442 0.375569C30.2421 0.372113 30.2379 0.370994 30.2357 0.367842C30.1713 0.295962 30.0974 0.236688 30.018 0.18443C29.9944 0.169179 29.9697 0.155454 29.945 0.141525C29.8764 0.104314 29.8045 0.0734058 29.7284 0.0508351C29.7091 0.0449382 29.6898 0.0366012 29.6695 0.0313144C29.588 0.0115904 29.5033 0 29.4186 0H2.88235C1.67167 0 0.686279 0.985488 0.686279 2.19618V53.8039C0.686279 55.0151 1.67167 56.0001 2.88235 56.0001H39.1176C40.3283 56.0001 41.3138 55.0151 41.3138 53.8039V13.5427C41.3137 13.5014 41.3072 13.4609 41.303 13.4196ZM7.98436 52.227C6.46196 52.227 4.96049 51.8313 4.20986 51.4158L4.82212 48.9264C5.63172 49.3414 6.87748 49.7564 8.16127 49.7564C9.5453 49.7564 10.2759 49.1827 10.2759 48.3131C10.2759 47.4826 9.64453 47.0092 8.04364 46.4366C5.83068 45.6656 4.38738 44.4394 4.38738 42.5033C4.38738 40.2306 6.28535 38.4913 9.42716 38.4913C10.9294 38.4913 12.0361 38.8076 12.8261 39.1636L12.1538 41.594C11.6206 41.3376 10.6719 40.9629 9.36799 40.9629C8.06295 40.9629 7.43168 41.5548 7.43168 42.247C7.43168 43.0967 8.18201 43.4721 9.90115 44.1241C12.2525 44.9937 13.3604 46.2193 13.3604 48.097C13.3598 50.329 11.6398 52.227 7.98436 52.227ZM26.7786 54.3207C24.8817 53.7674 23.3011 53.1948 21.5221 52.4431C21.2262 52.3251 20.9099 52.2657 20.5935 52.2462C17.59 52.0494 14.7841 49.8351 14.7841 45.487C14.7841 41.4953 17.3133 38.4913 21.2851 38.4913C25.3566 38.4913 27.5892 41.5741 27.5892 45.2104C27.5892 48.2342 26.1866 50.3686 24.4269 51.1585V51.2383C25.4553 51.5354 26.6016 51.7724 27.6482 51.9884L26.7786 54.3207ZM37.8866 52.0292H29.5666V38.7096H32.5905V49.4991H37.8866V52.0292ZM2.88235 37.2877V2.19618H28.3205V13.4322C28.3205 14.0383 28.8117 14.5303 29.4186 14.5303H39.1176L39.1187 37.2877H2.88235Z" fill="#F5F6FA"/>
<path d="M26.9694 17.403C27.0177 17.27 27.052 17.1338 27.052 16.9899C27.052 15.2222 23.2325 14.2687 19.6378 14.2687C16.0467 14.2687 12.2282 15.2222 12.2282 16.9899C12.2282 17.1338 12.2617 17.2706 12.3105 17.4041L12.2914 17.4381C12.1271 17.7362 12.0459 18.037 12.0459 18.3329V20.5202C12.0459 20.8569 12.1518 21.1802 12.3397 21.4858L12.3151 21.5276C12.136 21.8383 12.046 22.153 12.046 22.4638V24.6505C12.046 24.9767 12.1459 25.2896 12.3237 25.5867L12.3151 25.6003C12.136 25.9105 12.046 26.2258 12.046 26.5359V28.7228C12.046 30.6669 15.3809 32.189 19.6379 32.189C23.8995 32.189 27.2344 30.6669 27.2344 28.7228V26.5359C27.2344 26.2252 27.1443 25.9094 26.963 25.5997L26.9556 25.5877C27.1319 25.2901 27.2344 24.9773 27.2344 24.6505V22.4638C27.2344 22.1526 27.1443 21.8368 26.963 21.5266L26.9396 21.4863C27.1272 21.1802 27.2344 20.8574 27.2344 20.5197V18.3324C27.2344 18.0365 27.1518 17.7349 26.9889 17.4367L26.9694 17.403ZM26.4205 28.7227C26.4205 29.9784 23.6368 31.3756 19.6379 31.3756C15.6428 31.3756 12.8585 29.9784 12.8585 28.7227V26.6658C14.1053 27.8078 16.6704 28.5361 19.6379 28.5361C22.6095 28.5361 25.1745 27.8073 26.4205 26.6647V28.7227ZM26.4205 24.6504C26.4205 25.905 23.6368 27.3033 19.6379 27.3033C15.6428 27.3033 12.8585 25.905 12.8585 24.6504V22.5932C14.1053 23.7347 16.6704 24.4637 19.6379 24.4637C22.6095 24.4637 25.1745 23.7346 26.4205 22.5921V24.6504ZM26.4205 20.5196C26.4205 21.7742 23.6368 23.1724 19.6379 23.1724C15.6428 23.1724 12.8585 21.7747 12.8585 20.5196V18.6997C14.077 19.7322 16.9022 20.2676 19.6379 20.2676C22.3773 20.2676 25.2013 19.7322 26.4205 18.6997V20.5196Z" fill="#F5F6FA"/>
</svg>
