<svg width="48" height="39" viewBox="0 0 48 39" fill="none" xmlns="http://www.w3.org/2000/svg">
<path d="M0 25.8288V2.69367C0 1.206 1.17522 0 2.62492 0H36.0489C37.4986 0 38.6739 1.206 38.6739 2.69367V19.9485C38.6739 21.4361 37.4986 22.6421 36.0489 22.6421H5.87464C4.59025 22.6421 3.37074 23.2213 2.53951 24.2261L0.9252 26.1775C0.608967 26.5597 0 26.3302 0 25.8288Z" fill="#F5F6FA"/>
<path d="M47.9999 38.4602V19.6422C47.9999 18.1545 46.8247 16.9485 45.375 16.9485H14.7509C13.3012 16.9485 12.126 18.1545 12.126 19.6422V33.3219C12.126 34.8095 13.3012 36.0155 14.7509 36.0155H42.7454C44.0347 36.0155 45.2582 36.5991 46.0895 37.6103L47.0736 38.8076C47.3892 39.1915 47.9999 38.9625 47.9999 38.4602Z" fill="url(#paint0_linear_834_205)" fill-opacity="0.5"/>
<defs>
<linearGradient id="paint0_linear_834_205" x1="47.8284" y1="16.9485" x2="9.11852" y2="29.1659" gradientUnits="userSpaceOnUse">
<stop stop-color="#F5F6FA"/>
<stop offset="1" stop-color="#F5F6FA" stop-opacity="0.5"/>
</linearGradient>
</defs>
</svg>
