<svg width="538" height="544" viewBox="0 0 538 544" fill="none" xmlns="http://www.w3.org/2000/svg">
<path fill-rule="evenodd" clip-rule="evenodd" d="M78.7159 373.522C68.4732 350.559 58.2574 327.636 48.0415 304.749C37.9063 333.33 56.241 374.67 78.7159 373.522ZM255.236 47.3614C255.047 46.3981 254.859 45.4429 254.698 44.4823C252.278 43.6022 249.939 42.4404 247.439 41.893C236.981 39.5935 226.416 37.785 216.012 35.2387C192.972 29.6039 180.928 43.3822 171.438 58.6443C168.643 63.1333 170.578 66.4605 175.901 67.134C178.294 67.4291 180.821 67.4694 183.133 66.9381C203.78 62.2022 224.373 57.4315 244.939 52.3441C248.542 51.448 251.794 49.0572 255.236 47.3614ZM459.365 203.275C460.521 206.897 461.865 211.236 463.317 215.543C468.183 230.013 472.672 244.631 478.21 258.847C479.985 263.373 484.555 266.805 487.835 270.739C491.491 267.125 495.927 264.02 498.561 259.781C502.352 253.668 505.228 246.88 507.648 240.086C508.508 237.711 507.917 233.528 506.277 231.773C496.545 221.373 486.383 211.357 476.167 201.423C473.936 199.229 471.059 197.321 468.129 196.264C462.752 194.337 460.037 197.098 459.365 203.275ZM44.1972 269.255C45.2994 269.212 46.3747 269.167 47.45 269.124C55.2195 240.982 63.0696 212.873 70.624 184.678C72.694 176.931 74.5221 168.991 75.1942 161.03C75.49 157.309 73.6349 152.385 70.9734 149.874C69.6023 148.567 63.9299 150.595 60.9458 152.361C43.0142 162.927 36.2395 179.142 37.7718 199.414C38.7934 213.082 39.3043 226.793 40.514 240.453C41.3474 250.086 42.9605 259.657 44.1972 269.255ZM213.323 491.93C210.205 486.59 208.699 483.233 206.549 480.386C198.053 469.243 187.972 459.066 181.009 447.066C164.018 417.755 137.861 402.372 106.245 394.199C104.094 393.641 101.944 393.107 98.6638 392.278C99.5778 394.599 99.766 395.669 100.357 396.482C127.483 435.201 160.416 467.553 202.866 489.415C205.232 490.626 208.135 490.727 213.323 491.93ZM335.86 44.1094C335.806 44.5521 335.78 44.9922 335.753 45.4376C329.274 45.4376 322.741 44.917 316.369 45.6227C312.39 46.0654 308.627 48.3622 304.782 49.8273C307.605 53.0257 309.81 57.2491 313.305 59.2642C345.028 77.4993 373.901 99.4157 400.408 124.517C402.532 126.54 404.925 128.408 407.452 129.876C412.829 132.969 415.517 131.461 415.813 125.269C415.92 122.889 416.001 120.232 415.087 118.115C406.403 97.6663 397.935 77.1129 388.365 57.08C386.456 53.133 380.46 49.6126 375.836 48.7889C362.663 46.433 349.194 45.5637 335.86 44.1094ZM409.818 322.38C409.415 339.214 415.033 342.872 426.781 337.277C427.48 336.934 428.287 336.628 428.878 336.126C441.541 325.691 454.848 315.919 466.623 304.55C475.952 295.521 480.254 282.937 475.603 270.377C466.516 245.715 456.112 221.534 445.735 197.38C444.417 194.34 439.954 192.657 436.943 190.35C434.981 193.851 431.862 197.154 431.217 200.884C427.238 223.345 424.093 245.943 420.195 268.41C416.834 287.697 412.829 306.866 409.818 322.38ZM273.059 52.0732C258.892 56.1167 244.993 59.299 231.712 64.1717C222.464 67.5606 213.7 72.6668 205.473 78.1486C198.833 82.5732 199.451 88.6829 206.119 93.18C209.183 95.2487 212.759 97.0063 216.361 97.7763C227.894 100.256 239.482 102.66 251.149 104.294C294.352 110.32 337.177 117.731 377.799 134.585C382.961 136.723 389.279 136.044 395.085 136.672C392.397 131.416 390.676 125.279 386.832 121.045C364.33 96.1396 336.828 77.6978 306.879 63.0609C296.422 57.9574 284.593 55.725 273.059 52.0732ZM143.614 391.124C143.372 390.314 142.915 388.218 142.081 386.278C122.537 340.843 110.788 293.289 102.911 244.62C100.976 232.747 98.3412 220.874 94.685 209.427C91.8353 200.508 84.953 199.709 78.7697 206.709C75.92 209.905 72.9091 213.428 71.5649 217.346C63.903 239.353 56.7251 261.514 49.4934 283.667C49.0632 285.046 49.4664 286.833 49.8428 288.335C57.6391 319.901 69.4948 349.725 88.0447 376.64C89.5502 378.811 91.4053 381.336 93.6635 382.296C107.294 388.019 120.977 393.63 134.876 398.618C139.285 400.204 143.641 398.661 143.614 391.124ZM247.305 495.238C252.44 493.816 258.031 493.282 262.629 490.851C293.115 474.719 319.515 453.715 338.548 424.519C345.995 413.11 342.312 405.49 328.494 404.61C319.972 404.062 311.208 404.9 302.766 406.34C262.467 413.209 222.061 416.408 181.197 412.791C177.729 412.485 172.326 414.248 170.874 416.792C169.422 419.327 170.659 424.908 172.702 427.675C184.773 443.9 196.844 460.158 210.044 475.463C219.48 486.45 231.443 494.454 247.305 495.238ZM212.866 409.37C231.524 407.593 253.004 407.108 273.785 403.086C290.427 399.863 306.826 393.584 322.23 386.353C335.323 380.206 338.764 369.122 333.199 355.732C329.139 345.971 324.058 335.826 316.826 328.323C278.544 288.494 239.858 249.005 200.392 210.359C185.983 196.269 169.046 184.718 148.56 180.21C139.178 178.152 130.844 180.709 126.139 189.043C121.972 196.409 118.612 204.595 116.81 212.835C110.708 240.974 113.88 268.997 119.768 296.806C126.193 327.186 135.979 356.39 150.63 383.89C158.077 397.832 169.503 405.632 185.284 407.025C193.591 407.754 201.898 408.436 212.866 409.37ZM245.369 112.126C233.325 113.055 222.222 113.312 211.334 114.876C192.354 117.6 182.111 131.461 184.585 150.351C186.843 167.545 196.306 181.506 206.522 194.713C238.917 236.662 275.398 274.839 315.697 309.283C326.289 318.344 337.473 327.027 349.464 334.103C364.949 343.253 382.584 339.515 393.338 325.122C399.36 317.073 404.334 307.746 407.586 298.247C418.044 267.782 422.776 236.37 422.668 204.007C422.614 182.279 414.038 166.155 396.456 154.312C350.485 123.323 298.196 115.083 245.369 112.126ZM295.615 544C254.752 522.057 210.985 520.844 166.196 526.073C166.196 525.376 166.196 524.673 166.196 523.972C176.304 522.714 186.413 521.504 196.521 520.162C199.156 519.811 201.898 519.406 204.317 518.416C213.27 514.796 214.56 507.752 206.925 501.836C197.785 494.734 188.187 488.173 178.589 481.658C144.635 458.628 116.542 429.84 93.9591 395.747C85.8402 383.506 73.7425 377.474 60.8114 372.481C51.9397 369.044 48.149 372.347 48.9286 381.824C50.8912 406.225 57.4509 429.341 67.855 451.451C68.7422 453.337 69.4411 455.32 68.8765 457.992C66.914 454.705 64.3063 451.636 63.1503 448.083C56.3218 427.178 50.2998 406.018 43.1218 385.24C38.8742 372.937 34.008 360.629 27.6366 349.328C21.05 337.653 12.2054 327.247 4.54348 316.168C2.339 312.989 0.752748 309.377 0 305.342C4.70468 311.779 9.05981 318.5 14.1946 324.559C17.6089 328.594 21.8028 332.278 26.2924 335.055C34.1962 339.934 38.2558 338.012 39.6269 328.731C42.7992 307.52 44.224 286.589 40.1914 264.908C35.8362 241.527 35.5136 217.399 33.2554 193.61C32.9328 190.441 31.4273 187.382 30.4864 184.27C27.9324 186.405 24.7064 188.099 22.9589 190.758C16.0229 201.195 9.57081 211.944 1.64007 221.931C6.29098 213.27 9.70523 203.669 15.7541 196.127C31.5618 176.392 38.6323 153.265 44.7887 129.521C46.563 122.617 49.0632 115.899 52.6656 109.529C49.9503 119.703 46.6973 129.771 44.7616 140.088C43.8476 144.926 45.407 150.233 45.864 155.331C49.8697 153.072 54.6281 151.545 57.7735 148.422C66.9409 139.326 76.1619 130.131 84.0927 119.98C95.1151 105.866 97.8035 89.8877 90.6792 72.8815C90.3029 71.9799 90.3835 70.8905 90.0071 68.2476C93.5289 69.616 96.1637 70.3834 98.5564 71.6042C115.305 80.1449 131.596 78.9106 146.598 68.108C156.625 60.8982 165.82 52.5024 174.96 44.1362C177.138 42.1184 178.805 37.9004 178.294 35.1367C177.998 33.4489 173.052 31.5439 170.202 31.5922C160.04 31.7585 149.878 32.7191 139.689 33.1002C158.319 30.2372 177.676 29.5985 195.365 23.8726C213.243 18.0875 229.481 7.25812 247.117 0C238.164 4.69025 229.185 9.32416 220.259 14.103C217.652 15.4983 215.071 17.076 212.84 18.9784C207.624 23.4003 208.189 27.0951 214.668 29.6361C218.405 31.0984 222.41 31.8497 226.362 32.7352C258.488 39.9933 290.669 45.4429 323.978 42.4511C338.065 41.1873 352.474 43.8759 366.75 44.3267C370.218 44.4313 373.713 42.7865 377.208 41.9467C375.971 38.8181 375.191 35.3862 373.39 32.6252C369.438 26.639 364.975 20.9935 361.803 14.3016C367.045 20.2556 372.53 26.0192 377.477 32.2093C384.466 40.9673 393.284 46.476 404.011 49.6556C414.307 52.7171 424.389 56.5729 434.497 60.2998C437.669 61.4724 440.573 63.3614 444.095 65.1699C429.685 60.7963 415.974 56.4816 402.156 52.5212C396.725 50.9596 393.956 53.0525 396.537 58.8375C410.355 90.046 423.797 121.45 438.503 152.243C442.777 161.197 450.197 169.008 457.322 176.217C473.613 192.719 490.604 208.529 507.326 224.601C508.455 225.674 509.718 226.579 512.568 228.881C516.493 212.489 520.095 197.321 523.725 182.155C523.94 182.094 524.155 182.029 524.37 181.967C524.37 184.981 524.666 188.034 524.289 191.002C523.805 194.713 523.214 198.518 521.924 202.008C514.1 223.074 515.74 242.412 530.849 260.111C534.183 264.05 535.58 269.701 537.677 274.648C538.161 275.799 537.892 277.278 538 279.094C530.123 265.692 522.542 252.737 513.912 238.028C499.153 267.326 487.297 294.104 493.05 325.723C499.906 363.31 493.615 400.113 483.238 436.368C482.7 438.255 481.436 439.932 481.49 439.805C484.474 416.598 488.749 391.744 490.416 366.72C491.437 351.077 489.69 334.972 487.001 319.453C484.582 305.444 477.162 303.235 466.865 313.08C452.294 327.038 438.046 341.525 425.222 357.061C411.861 373.222 412.909 391.172 427.427 406.813C440.062 420.43 454.015 432.826 467.376 445.778C469.097 447.458 470.764 449.229 472.457 450.957C472 451.467 471.543 451.979 471.086 452.5C469.446 451.445 467.726 450.485 466.166 449.328C453.316 439.915 440.869 429.971 427.642 421.136C400.382 402.893 378.955 404.017 353.953 425.088C333.548 442.287 313.842 460.345 293.545 477.671C286.609 483.609 278.355 488.044 271.473 494.033C268.167 496.894 264.645 501.981 264.994 505.705C265.263 508.539 271.124 511.938 275.103 513.159C304.03 522.035 333.602 521.394 363.228 517.831C373.068 516.645 382.907 515.292 392.962 515.867C375.46 518.024 358.012 521.399 340.43 522.019C319.488 522.76 298.411 520.962 277.415 520.718C273.947 520.675 270.452 522.923 266.984 524.112C269.376 527.018 271.231 530.769 274.269 532.666C281.071 536.932 288.464 540.281 295.615 544Z" fill="#374689"/>
</svg>
