<svg width="141" height="40" viewBox="0 0 141 40" fill="none" xmlns="http://www.w3.org/2000/svg">
<path fill-rule="evenodd" clip-rule="evenodd" d="M5.7768 27.4649C5.0251 25.7764 4.27539 24.0909 3.52567 22.408C2.78186 24.5096 4.12741 27.5493 5.7768 27.4649ZM18.7312 3.48246C18.7174 3.41162 18.7036 3.34139 18.6917 3.27076C18.5142 3.20605 18.3425 3.12062 18.159 3.08037C17.3916 2.91129 16.6162 2.77831 15.8527 2.59108C14.1618 2.17676 13.278 3.18987 12.5815 4.31208C12.3763 4.64216 12.5184 4.8868 12.909 4.93632C13.0846 4.95802 13.2701 4.96098 13.4397 4.92192C14.955 4.57369 16.4663 4.2229 17.9756 3.84883C18.2399 3.78294 18.4787 3.60715 18.7312 3.48246ZM33.7118 14.9467C33.7966 15.213 33.8953 15.5321 34.0018 15.8487C34.3589 16.9127 34.6884 17.9876 35.0948 19.0329C35.2251 19.3657 35.5605 19.618 35.8012 19.9073C36.0695 19.6415 36.395 19.4132 36.5884 19.1015C36.8666 18.6521 37.0777 18.1529 37.2552 17.6534C37.3184 17.4788 37.275 17.1712 37.1546 17.0422C36.4404 16.2774 35.6946 15.5409 34.9449 14.8105C34.7812 14.6492 34.57 14.5089 34.355 14.4311C33.9604 14.2895 33.7611 14.4925 33.7118 14.9467ZM3.24354 19.7982C3.32443 19.795 3.40334 19.7917 3.48226 19.7885C4.05244 17.7193 4.62855 15.6524 5.18295 13.5792C5.33486 13.0096 5.46902 12.4258 5.51835 11.8405C5.54005 11.5668 5.40391 11.2048 5.20859 11.0201C5.10797 10.924 4.69168 11.0732 4.47268 11.203C3.15673 11.98 2.65954 13.1722 2.772 14.6628C2.84697 15.6678 2.88446 16.676 2.97324 17.6804C3.0344 18.3887 3.15278 19.0924 3.24354 19.7982ZM15.6554 36.1713C15.4265 35.7787 15.316 35.5319 15.1582 35.3225C14.5347 34.5032 13.7949 33.7548 13.2839 32.8725C12.037 30.7173 10.1173 29.5862 7.79711 28.9852C7.63927 28.9442 7.48143 28.9049 7.24073 28.8439C7.30781 29.0146 7.32162 29.0933 7.36502 29.1531C9.35573 32.0001 11.7726 34.3789 14.8879 35.9864C15.0615 36.0754 15.2746 36.0829 15.6554 36.1713ZM24.6481 3.24334C24.6441 3.27589 24.6422 3.30825 24.6402 3.341C24.1647 3.341 23.6853 3.30272 23.2177 3.35461C22.9257 3.38716 22.6495 3.55605 22.3673 3.66377C22.5745 3.89894 22.7363 4.20949 22.9928 4.35766C25.3209 5.69847 27.4398 7.30998 29.3851 9.15568C29.541 9.30444 29.7166 9.44175 29.9021 9.54967C30.2966 9.77715 30.4939 9.66628 30.5156 9.21092C30.5235 9.03592 30.5294 8.84059 30.4624 8.68493C29.8251 7.18134 29.2036 5.67006 28.5013 4.19706C28.3612 3.90684 27.9212 3.64799 27.5819 3.58742C26.6151 3.41419 25.6267 3.35027 24.6481 3.24334ZM30.0757 23.7044C30.0461 24.9422 30.4584 25.2112 31.3206 24.7998C31.3719 24.7745 31.4311 24.752 31.4745 24.7152C32.4037 23.9479 33.3804 23.2293 34.2445 22.3934C34.9291 21.7295 35.2448 20.8042 34.9035 19.8806C34.2366 18.0673 33.4731 16.2893 32.7115 14.5132C32.6148 14.2897 32.2873 14.166 32.0664 13.9963C31.9223 14.2538 31.6935 14.4966 31.6461 14.7709C31.3541 16.4224 31.1233 18.0841 30.8372 19.736C30.5906 21.1542 30.2966 22.5637 30.0757 23.7044ZM20.0393 3.82891C18.9995 4.12623 17.9795 4.36022 17.0049 4.71851C16.3262 4.96769 15.683 5.34314 15.0793 5.74622C14.5919 6.07156 14.6373 6.5208 15.1266 6.85147C15.3515 7.00358 15.6139 7.13281 15.8783 7.18943C16.7247 7.37173 17.5751 7.54851 18.4313 7.66866C21.6018 8.11179 24.7447 8.65672 27.7259 9.89593C28.1047 10.0532 28.5683 10.0033 28.9945 10.0494C28.7972 9.66292 28.6709 9.21171 28.3888 8.90038C26.7374 7.06908 24.7191 5.71307 22.5212 4.63683C21.7538 4.26157 20.8857 4.09742 20.0393 3.82891ZM10.5395 28.7591C10.5218 28.6995 10.4882 28.5454 10.427 28.4028C8.99271 25.062 8.13053 21.5653 7.55245 17.9868C7.4104 17.1138 7.21706 16.2407 6.94874 15.3991C6.7396 14.7433 6.23452 14.6845 5.78075 15.1992C5.57161 15.4342 5.35065 15.6932 5.252 15.9813C4.68971 17.5995 4.16294 19.229 3.63221 20.8578C3.60065 20.9592 3.63024 21.0906 3.65786 21.2011C4.23001 23.5221 5.10008 25.715 6.46141 27.6941C6.5719 27.8537 6.70804 28.0394 6.87377 28.11C7.87405 28.5308 8.87828 28.9434 9.8983 29.3102C10.2219 29.4268 10.5415 29.3133 10.5395 28.7591ZM18.1492 36.4146C18.526 36.31 18.9364 36.2707 19.2738 36.092C21.5111 34.9058 23.4485 33.3614 24.8454 31.2146C25.3919 30.3758 25.1216 29.8154 24.1075 29.7507C23.4821 29.7105 22.8389 29.772 22.2194 29.878C19.2619 30.383 16.2966 30.6182 13.2977 30.3523C13.0432 30.3298 12.6466 30.4594 12.5401 30.6464C12.4335 30.8329 12.5243 31.2433 12.6742 31.4467C13.5601 32.6397 14.4459 33.8351 15.4147 34.9605C16.1072 35.7684 16.9851 36.3569 18.1492 36.4146ZM15.6218 30.1007C16.991 29.9701 18.5674 29.9344 20.0925 29.6387C21.3138 29.4017 22.5173 28.94 23.6478 28.4083C24.6086 27.9563 24.8612 27.1413 24.4528 26.1568C24.1548 25.439 23.7819 24.6931 23.2512 24.1414C20.4417 21.2128 17.6027 18.3092 14.7064 15.4675C13.6489 14.4315 12.4059 13.5822 10.9025 13.2507C10.214 13.0994 9.60236 13.2874 9.25709 13.9002C8.95128 14.4418 8.70466 15.0437 8.57247 15.6496C8.12461 17.7187 8.35742 19.7792 8.7895 21.824C9.26103 24.0578 9.97918 26.2051 11.0544 28.2272C11.6009 29.2523 12.4395 29.8259 13.5976 29.9283C14.2072 29.9819 14.8169 30.0321 15.6218 30.1007ZM18.0071 8.24457C17.1232 8.31283 16.3084 8.33177 15.5094 8.4468C14.1165 8.64705 13.3648 9.66628 13.5463 11.0552C13.712 12.3195 14.4065 13.346 15.1562 14.3171C17.5336 17.4016 20.2109 20.2087 23.1684 22.7414C23.9457 23.4077 24.7665 24.0461 25.6464 24.5664C26.7828 25.2392 28.0771 24.9643 28.8663 23.906C29.3082 23.3142 29.6732 22.6284 29.9119 21.9299C30.6794 19.6899 31.0266 17.3801 31.0187 15.0005C31.0148 13.4028 30.3854 12.2173 29.0951 11.3464C25.7214 9.06788 21.884 8.46199 18.0071 8.24457ZM21.6946 40C18.6957 38.3865 15.4837 38.2973 12.1968 38.6819C12.1968 38.6306 12.1968 38.5789 12.1968 38.5274C12.9386 38.4349 13.6804 38.3459 14.4223 38.2472C14.6156 38.2214 14.8169 38.1916 14.9944 38.1188C15.6514 37.8526 15.7461 37.3347 15.1858 36.8997C14.515 36.3775 13.8107 35.8951 13.1063 35.416C10.6145 33.7227 8.55274 31.6059 6.89546 29.0991C6.29963 28.199 5.41181 27.7555 4.46282 27.3883C3.81174 27.1356 3.53355 27.3784 3.59077 28.0753C3.7348 29.8695 4.2162 31.5692 4.97974 33.1949C5.04484 33.3336 5.09614 33.4794 5.0547 33.6759C4.91068 33.4342 4.71931 33.2085 4.63447 32.9473C4.13334 31.4102 3.6914 29.8543 3.16462 28.3264C2.85289 27.4218 2.49578 26.5169 2.02819 25.6858C1.54482 24.8274 0.895727 24.0623 0.333436 23.2477C0.171654 23.0139 0.0552426 22.7483 0 22.4516C0.345266 22.9249 0.664881 23.4191 1.04171 23.8646C1.29228 24.1613 1.60006 24.4322 1.92954 24.6364C2.50959 24.9951 2.80752 24.8539 2.90814 24.1714C3.14095 22.6118 3.2455 21.0727 2.94956 19.4785C2.62994 17.7593 2.60627 15.9852 2.44054 14.236C2.41687 14.003 2.30639 13.7781 2.23733 13.5492C2.0499 13.7063 1.81315 13.8308 1.68491 14.0263C1.17589 14.7938 0.702382 15.5841 0.120362 16.3185C0.461682 15.6816 0.712247 14.9757 1.15616 14.4211C2.31626 12.97 2.83514 11.2695 3.28695 9.52363C3.41716 9.01599 3.60064 8.52196 3.86502 8.05358C3.66575 8.80173 3.42702 9.54198 3.28496 10.3006C3.21788 10.6563 3.33233 11.0466 3.36587 11.4214C3.65984 11.2553 4.00904 11.143 4.23988 10.9134C4.91266 10.2446 5.58937 9.56842 6.17139 8.82205C6.9803 7.78428 7.17759 6.60939 6.65476 5.35893C6.62714 5.29264 6.63306 5.21254 6.60544 5.0182C6.86389 5.11882 7.05726 5.17525 7.23285 5.26502C8.462 5.89301 9.65759 5.80225 10.7585 5.00794C11.4944 4.47781 12.1692 3.86047 12.84 3.24531C12.9998 3.09694 13.1221 2.78679 13.0846 2.58358C13.0629 2.45948 12.6999 2.3194 12.4908 2.32295C11.745 2.33519 10.9992 2.40582 10.2515 2.43383C11.6187 2.22332 13.0392 2.17636 14.3374 1.75533C15.6494 1.32996 16.8411 0.533684 18.1354 0C17.4784 0.344872 16.8194 0.6856 16.1644 1.03698C15.973 1.13958 15.7836 1.25558 15.6199 1.39547C15.2371 1.72061 15.2785 1.99228 15.754 2.17912C16.0283 2.28665 16.3222 2.34189 16.6122 2.407C18.9699 2.94068 21.3316 3.34139 23.776 3.1214C24.8099 3.02848 25.8674 3.22617 26.915 3.25932C27.1695 3.26701 27.426 3.14607 27.6825 3.08432C27.5917 2.85427 27.5345 2.60193 27.4023 2.39891C27.1123 1.95875 26.7848 1.54364 26.552 1.05158C26.9367 1.48938 27.3392 1.91317 27.7022 2.36833C28.2152 3.0123 28.8623 3.41735 29.6495 3.65114C30.4051 3.87626 31.145 4.15977 31.8868 4.43381C32.1196 4.52003 32.3327 4.65893 32.5912 4.7919C31.5337 4.47031 30.5275 4.15306 29.5134 3.86185C29.1148 3.74703 28.9116 3.90092 29.101 4.32629C30.1151 6.62103 31.1016 8.93017 32.1808 11.1943C32.4945 11.8527 33.039 12.427 33.5619 12.9572C34.7575 14.1705 36.0044 15.333 37.2316 16.5148C37.3144 16.5937 37.4072 16.6602 37.6163 16.8295C37.9043 15.6242 38.1687 14.5089 38.4351 13.3938C38.4509 13.3892 38.4666 13.3845 38.4824 13.38C38.4824 13.6015 38.5041 13.826 38.4765 14.0443C38.441 14.3171 38.3976 14.5969 38.3029 14.8536C37.7287 16.4025 37.8491 17.8244 38.9579 19.1258C39.2025 19.4154 39.3051 19.8309 39.459 20.1947C39.4945 20.2794 39.4748 20.3881 39.4827 20.5217C38.9046 19.5362 38.3483 18.5836 37.7149 17.502C36.6318 19.6563 35.7617 21.6253 36.1839 23.9502C36.687 26.714 36.2253 29.4201 35.4638 32.0859C35.4243 32.2246 35.3316 32.3479 35.3355 32.3386C35.5545 30.6322 35.8682 28.8047 35.9906 26.9647C36.0655 25.8145 35.9373 24.6303 35.74 23.4892C35.5624 22.4591 35.0179 22.2967 34.2623 23.0206C33.1929 24.0469 32.1473 25.1121 31.2062 26.2544C30.2256 27.4428 30.3026 28.7627 31.368 29.9127C32.2952 30.914 33.3192 31.8255 34.2998 32.7778C34.426 32.9013 34.5483 33.0315 34.6726 33.1586C34.6391 33.1961 34.6056 33.2338 34.572 33.272C34.4517 33.1945 34.3254 33.1239 34.211 33.0388C33.2679 32.3467 32.3544 31.6156 31.3837 30.9659C29.3832 29.6244 27.8107 29.7071 25.9759 31.2565C24.4784 32.5211 23.0322 33.8489 21.5427 35.1229C21.0336 35.5595 20.4279 35.8856 19.9229 36.326C19.6802 36.5363 19.4217 36.9104 19.4474 37.1842C19.4671 37.3925 19.8972 37.6425 20.1892 37.7323C22.3121 38.3849 24.4824 38.3378 26.6565 38.0758C27.3787 37.9886 28.1007 37.8891 28.8386 37.9314C27.5542 38.09 26.2738 38.3382 24.9835 38.3838C23.4465 38.4382 21.8998 38.306 20.3589 38.2881C20.1044 38.2849 19.8479 38.4502 19.5934 38.5376C19.769 38.7513 19.9051 39.0271 20.128 39.1666C20.6272 39.4803 21.1698 39.7265 21.6946 40Z" fill="white"/>
<path d="M51.8133 24.4605C52.9142 24.4605 53.7152 24.2316 54.2144 23.7741C54.7155 23.3167 54.9661 22.5627 54.9661 21.5117V17.3762C54.9661 16.3996 54.7155 15.6828 54.2144 15.2251C53.7152 14.7677 52.9142 14.5391 51.8133 14.5391H47.4926V24.4605H51.8133ZM55.7829 14.0662C56.6234 14.7646 57.0436 15.8803 57.0436 17.4135V21.456C57.0436 23.051 56.6194 24.2069 55.773 24.9239C54.9266 25.6411 53.6797 25.9995 52.0363 25.9995H45.415V13.0185H52.0363C53.6935 13.0185 54.9424 13.3675 55.7829 14.0662Z" fill="white"/>
<path d="M61.8757 23.5332C62.14 23.9412 62.5642 24.2316 63.1462 24.4048C63.7263 24.5779 64.5174 24.6643 65.5197 24.6643C66.52 24.6643 67.3052 24.5779 67.8734 24.4048C68.4436 24.2316 68.8579 23.9412 69.1164 23.5332C69.3768 23.1252 69.507 22.5503 69.507 21.8084V17.1909C69.507 16.4491 69.3768 15.8681 69.1164 15.4476C68.8579 15.0272 68.4436 14.7305 67.8734 14.5574C67.3052 14.3844 66.52 14.298 65.5197 14.298C64.5174 14.298 63.7263 14.3844 63.1462 14.5574C62.5642 14.7305 62.14 15.0272 61.8757 15.4476C61.6093 15.8681 61.4771 16.4491 61.4771 17.1909V21.8084C61.4771 22.5503 61.6093 23.1252 61.8757 23.5332ZM61.996 13.1669C62.874 12.9071 64.0479 12.7772 65.5197 12.7772C66.9777 12.7772 68.1437 12.9071 69.0158 13.1669C69.8858 13.4263 70.5349 13.8807 70.9611 14.5298C71.3892 15.1787 71.6023 16.0845 71.6023 17.2464V21.7715C71.6023 22.9334 71.3892 23.8392 70.9611 24.4881C70.5349 25.1372 69.8858 25.5916 69.0158 25.8512C68.1437 26.1108 66.9777 26.2407 65.5197 26.2407C64.0479 26.2407 62.874 26.1108 61.996 25.8512C61.118 25.5916 60.463 25.1372 60.029 24.4881C59.5969 23.8392 59.3818 22.9334 59.3818 21.7715V17.2464C59.3818 16.0845 59.5969 15.1787 60.029 14.5298C60.463 13.8807 61.118 13.4263 61.996 13.1669Z" fill="white"/>
<path d="M89.6639 25.9995V14.8914H89.4054L83.9522 25.9995H81.7089L76.2202 14.8914H75.9598V25.9995H73.9375V13.0185H77.3132L82.6362 24.1452H83.0071L88.3104 13.0185H91.6862V25.9995H89.6639Z" fill="white"/>
<path d="M101.962 25.9995H98.6241L93.5615 13.0185H95.8422L100.033 24.3675H100.552L104.742 13.0185H107.043L101.962 25.9995Z" fill="white"/>
<path d="M111.067 24.1081C111.673 24.4788 112.675 24.6643 114.072 24.6643C115.394 24.6643 116.362 24.5035 116.974 24.1823C117.586 23.8609 117.892 23.3601 117.892 22.6801V22.2906C117.892 21.7838 117.726 21.388 117.39 21.1037C117.057 20.8194 116.615 20.6031 116.065 20.4548C115.514 20.3064 114.689 20.1334 113.589 19.9355L113.014 19.8242C111.841 19.6139 110.941 19.404 110.315 19.1937C109.692 18.9836 109.213 18.6683 108.879 18.2478C108.546 17.8276 108.378 17.2341 108.378 16.4676V16.1524C108.378 14.9779 108.846 14.1216 109.779 13.584C110.712 13.0462 112.168 12.7772 114.145 12.7772C116.173 12.7772 117.607 13.0339 118.448 13.5467C119.288 14.0601 119.709 14.8542 119.709 15.9298V16.616H117.744V16.208C117.744 15.5157 117.469 15.0211 116.919 14.7243C116.368 14.4276 115.425 14.2792 114.09 14.2792C112.791 14.2792 111.858 14.4247 111.29 14.7151C110.722 15.0057 110.436 15.4476 110.436 16.0411V16.2824C110.436 16.7644 110.564 17.1321 110.817 17.3855C111.071 17.6392 111.438 17.8306 111.919 17.9604C112.403 18.0904 113.168 18.2417 114.22 18.4147C114.382 18.452 114.622 18.4952 114.944 18.5446C116.13 18.7549 117.063 18.9711 117.744 19.1937C118.424 19.4162 118.967 19.7562 119.375 20.2135C119.784 20.671 119.987 21.3016 119.987 22.1052V22.643C119.987 23.8297 119.505 24.7262 118.541 25.3321C117.576 25.9378 116.063 26.2407 113.997 26.2407C110.053 26.2407 108.082 25.0662 108.082 22.7172V21.8643H110.16L110.14 22.365C110.152 23.1559 110.461 23.7372 111.067 24.1081Z" fill="white"/>
<path d="M128.276 25.9995H126.349V16.7273H128.276V25.9995ZM128.314 15.2624H126.329V13.278H128.314V15.2624Z" fill="white"/>
<path d="M136.476 14.5391V25.9995H134.398V14.5391H129.93V13.0185H140.964V14.5391H136.476Z" fill="white"/>
</svg>
