<svg width="39" height="39" viewBox="0 0 39 39" fill="none" xmlns="http://www.w3.org/2000/svg">
<path fill-rule="evenodd" clip-rule="evenodd" d="M0.620296 35.3846L9.83854 26.1664C7.43001 23.0297 6.24238 19.1152 6.51273 15.1549C6.79778 10.9794 8.68162 7.07459 11.7724 4.2527C14.8631 1.4308 18.9228 -0.0908785 23.1069 0.00420177C27.2911 0.0992821 31.2774 1.8038 34.2368 4.76318C37.1962 7.72256 38.9007 11.7089 38.9958 15.8931C39.0909 20.0772 37.5692 24.1369 34.7473 27.2276C31.9254 30.3184 28.0206 32.2022 23.8451 32.4873C19.8848 32.7576 15.9703 31.57 12.8336 29.1615L3.61535 38.3797C2.78829 39.2068 1.44736 39.2068 0.620296 38.3797C-0.206765 37.5526 -0.206765 36.2117 0.620296 35.3846ZM34.7142 16.287C34.7141 13.9135 34.0102 11.5933 32.6915 9.61974C31.3728 7.64608 29.4984 6.1078 27.3053 5.19942C25.1123 4.29104 22.6992 4.05337 20.3711 4.51646C18.043 4.97954 15.9045 6.12259 14.2261 7.80105C12.5476 9.47951 11.4046 11.618 10.9415 13.9461C10.4784 16.2742 10.7161 18.6873 11.6244 20.8803C12.5328 23.0733 14.0711 24.9477 16.0447 26.2665C18.0182 27.5851 20.3383 28.289 22.7117 28.2891C25.8939 28.2856 28.9447 27.0199 31.1948 24.7698C33.4449 22.5198 34.7105 19.4691 34.7142 16.287Z" fill="#F5F6FA"/>
</svg>
