<svg width="52" height="40" viewBox="0 0 52 40" fill="none" xmlns="http://www.w3.org/2000/svg">
<path fill-rule="evenodd" clip-rule="evenodd" d="M30.5032 3.36352C29.0256 2.87046 27.4201 2.92442 25.9789 3.51558L20.006 5.96565C19.0884 6.34204 18.2613 6.90913 17.5794 7.62933L15.017 10.3358C14.498 10.884 14.5386 11.7537 15.1065 12.251C15.6053 12.688 16.3496 12.6908 16.8518 12.2577L20.4989 9.11225C21.5735 8.18543 23.0528 7.88427 24.4042 8.31719L30.7607 10.3535C31.7984 10.6859 32.7139 11.319 33.3912 12.1726L42.8005 24.031C43.7254 25.2412 43.8628 25.873 43.6754 26.9469C43.025 29.0419 41.2418 30.625 39.0327 30.9893L38.4496 31.0854C37.2143 32.7923 35.3084 33.9113 33.1916 34.144L32.5722 34.2121C31.3038 35.8972 29.3076 36.9076 27.1683 36.9076H26.6469C26.3441 36.9076 26.0455 36.8666 25.7586 36.7877C24.9358 38.3977 23.2611 39.5 21.329 39.5C20.082 39.5 18.8805 39.0314 17.9629 38.187L5.74097 26.9416C5.19771 26.4417 4.59804 26.0069 3.9541 25.6459L1.26682 24.1394C0.544197 23.7343 0.2868 22.8201 0.691906 22.0975C1.09701 21.3749 2.01121 21.1175 2.73384 21.5226L5.42112 23.0291C6.26841 23.5041 7.05745 24.0762 7.77227 24.7339L19.9942 35.9793C20.358 36.3142 20.8345 36.5 21.329 36.5C22.2576 36.5 23.0363 35.8579 23.2452 34.9934L18.6984 30.2792C18.1258 29.6855 18.14 28.7408 18.7303 28.1645C19.3206 27.5883 20.2654 27.5969 20.8452 28.1837L26.3967 33.803C26.4628 33.8699 26.5529 33.9076 26.6469 33.9076H27.1683C28.134 33.9076 29.0472 33.5376 29.7344 32.8974L23.1387 26.0036C22.566 25.405 22.587 24.4555 23.1856 23.8828C23.7842 23.3101 24.7337 23.3311 25.3064 23.9297L32.2866 31.2254L32.8638 31.162C33.9019 31.0479 34.8555 30.5786 35.574 29.8518L27.4793 21.7559C26.8935 21.1701 26.8936 20.2204 27.4794 19.6346C28.0653 19.0489 29.015 19.0489 29.6007 19.6348L38.0719 28.1072L38.5446 28.0292C39.5502 27.8634 40.375 27.1801 40.739 26.2593L31.0411 14.0373C30.7333 13.6493 30.3171 13.3615 29.8454 13.2104L23.489 11.1742C23.1323 11.0599 22.7418 11.1394 22.4582 11.384L18.8111 14.5295C17.1766 15.9393 14.7534 15.93 13.1297 14.5077C11.2813 12.8886 11.1491 10.0576 12.8385 8.27328L14.8455 6.15339L16.7289 4.48764C17.3156 3.96874 17.9852 3.55199 18.7099 3.25475L24.8404 0.74002C26.9467 -0.123989 29.2932 -0.202854 31.4528 0.517783L37.81 2.63913C38.4892 2.86578 39.2216 2.87866 39.9083 2.67603L48.052 0.273186C48.8466 0.0387453 49.6808 0.492814 49.9152 1.28738C50.1496 2.08194 49.6956 2.91611 48.901 3.15055L40.7573 5.55339C39.4819 5.92971 38.1218 5.9058 36.8604 5.48488L30.5032 3.36352ZM44.7062 25.0445C44.8685 25.5723 45.4278 25.8686 45.9556 25.7065L46.5002 25.5392C46.6677 25.4557 46.8417 25.3858 47.0205 25.3301L50.4464 24.2631C51.2373 24.0168 51.6788 23.1759 51.4325 22.385C51.1861 21.594 50.3452 21.1525 49.5543 21.3988L46.1284 22.4658C45.7964 22.5692 45.4733 22.6991 45.1622 22.8541L44.9606 22.949C44.5101 23.1609 44.2841 23.6719 44.4304 24.1478L44.7062 25.0445ZM13.5133 3.53664C14.2639 3.75734 14.4818 4.71569 13.9003 5.2392L12.921 6.12093C12.6598 6.35609 12.2944 6.43688 11.9584 6.33373L1.66959 3.17495C0.861556 2.99229 0.354584 2.18918 0.537242 1.38114C0.7199 0.573097 1.52302 0.0661253 2.33106 0.248783L13.5133 3.53664Z" fill="#9BA4CE"/>
</svg>
