<svg width="32" height="22" viewBox="0 0 32 22" fill="none" xmlns="http://www.w3.org/2000/svg">
<path fill-rule="evenodd" clip-rule="evenodd" d="M15.9997 0L32 6.84295L29.226 8.02937V11.8874C30.1941 12.2523 30.852 13.2089 30.852 14.274C30.852 15.6342 29.779 16.8175 28.3571 16.8175C27.1764 16.8175 26.2363 16.0016 25.9514 14.9461V18.7049C25.9514 19.5399 25.3942 20.3142 24.5354 20.5218L20.7778 21.4302C17.635 22.1899 14.3655 22.1899 11.2227 21.4302L7.46457 20.5218C6.60582 20.3142 6.0486 19.5399 6.0486 18.7049V9.42991L0 6.84297L15.9997 0ZM7.78636 10.1731V18.7049C7.78636 18.8123 7.85444 18.856 7.8793 18.862L11.6374 19.7704C14.5078 20.4642 17.4927 20.4642 20.363 19.7703L24.1207 18.862C24.1455 18.856 24.2136 18.8123 24.2136 18.7049V10.1731L15.9997 13.6859L7.78636 10.1731ZM25.9514 9.42991V13.602C26.1619 12.8222 26.7299 12.1733 27.4882 11.8874V8.7726L25.9514 9.42991ZM27.6421 6.84298L15.9997 1.86382L4.35786 6.84297L15.9997 11.8221L24.736 8.0859L27.6421 6.84298ZM28.3571 13.4397C27.983 13.4397 27.6 13.7688 27.6 14.274C27.6 14.7792 27.983 15.1083 28.3571 15.1083C28.7312 15.1083 29.1142 14.7792 29.1142 14.274C29.1142 13.7688 28.7312 13.4397 28.3571 13.4397Z" fill="#F5F6FA"/>
</svg>
