<svg width="46" height="46" viewBox="0 0 46 46" fill="none" xmlns="http://www.w3.org/2000/svg">
<path d="M19.7333 32.8L20.794 33.8607L20.8421 33.8125L20.8857 33.7603L19.7333 32.8ZM10.1667 20.9L9.10601 19.8393L10.1667 20.9ZM12.7333 14.1333L13.2077 15.5564L13.2764 15.5335L13.3425 15.5041L12.7333 14.1333ZM9.35 21.7167L10.4107 22.7773L9.35 21.7167ZM40.7333 12.7333L41.4588 11.4204L40.8058 11.0596L40.1241 11.3626L40.7333 12.7333ZM39.3333 34.2L38.2727 35.2607L38.3283 35.3162L38.3893 35.3657L39.3333 34.2ZM28.6 5.73333L28.8942 7.2042L28.995 7.18403L29.0922 7.15027L28.6 5.73333ZM37.4667 9L38.1375 10.3416L38.2686 10.2761L38.3845 10.1864L37.4667 9ZM9 20.6667L8.27154 21.9779C8.62918 22.1766 9.05246 22.2206 9.44332 22.0997C9.83417 21.9787 10.1587 21.7034 10.3416 21.3375L9 20.6667ZM26.0655 6.70295L27.4582 7.26004L26.0655 6.70295ZM26.7978 6.09376L26.5037 4.62289L26.7978 6.09376ZM25.4748 8.17956L24.0821 7.62248L25.4748 8.17956ZM24.8041 17.7079L23.3116 17.8571L24.8041 17.7079ZM30.2592 20.1568L30.0126 18.6772L30.2592 20.1568ZM29.7531 20.1102L30.2657 18.7005L29.7531 20.1102ZM33.1659 20.1221L34.2582 19.0941L33.1659 20.1221ZM32.2733 19.8211L32.5199 21.3007L32.2733 19.8211ZM34.3949 21.4279L33.3026 22.4559L34.3949 21.4279ZM34.7722 24.6111L33.4306 25.282L34.7722 24.6111ZM37.3611 29.7889L38.7027 29.118L37.3611 29.7889ZM37.7596 32.6262L36.6989 33.6869L37.7596 32.6262ZM36.2216 14.5377L35.9274 16.0085L36.2216 14.5377ZM36.8238 14.4709L37.4331 15.8416L36.8238 14.4709ZM31.6391 13.3822L32.8104 12.4452L31.6391 13.3822ZM32.2239 13.7381L31.9297 15.209L32.2239 13.7381ZM30.3002 11.7086L31.4715 10.7716L30.3002 11.7086ZM25.9664 11.7086L24.7951 10.7716L25.9664 11.7086ZM21.1188 6.9363L22.5115 7.49338L21.1188 6.9363ZM20.2687 8.22583L19.7117 6.83312L20.2687 8.22583ZM20.8258 7.66875L22.2185 8.22583L20.8258 7.66875ZM18.1702 9.38072L16.7914 8.78984L18.1702 9.38072ZM18.7179 8.84617L18.1608 7.45345L18.7179 8.84617ZM16.5749 12.426L15.9656 11.0553L16.5749 12.426ZM17.0879 11.9061L18.4666 12.497L17.0879 11.9061ZM9.56436 15.1897L10.0387 16.6127L9.56436 15.1897ZM9.75063 18.3737L8.37192 18.9646L9.75063 18.3737ZM9.72592 19.2148L8.38428 18.544L9.72592 19.2148ZM8.72919 22.3375L7.66853 21.2768L8.72919 22.3375ZM8.2321 24.7309L6.89046 25.4017L8.2321 24.7309ZM9.76481 27.3491L9.09399 28.6907L9.76481 27.3491ZM9.3176 26.9019L10.6592 26.231L9.3176 26.9019ZM12.8857 35.4L11.5833 36.1442L12.8857 35.4ZM12.7569 34.8271L11.2613 34.7121L12.7569 34.8271ZM14.9238 38.5295L15.4809 37.1368L14.9238 38.5295ZM14.427 38.0972L13.1246 38.8414L14.427 38.0972ZM16.6887 37.6211L15.2038 37.8332L16.6887 37.6211ZM15.3274 38.691L14.7703 40.0837L15.3274 38.691ZM16.8202 35.7131L17.8809 36.7738L16.8202 35.7131ZM16.5374 36.5616L15.0525 36.7738L16.5374 36.5616ZM24.4406 14.0724L25.9331 13.9232L24.4406 14.0724ZM22.0999 29.7012L23.5907 29.8668L22.0999 29.7012ZM21.8742 30.231L23.0265 31.1912L21.8742 30.231ZM21.6343 25.6202L21.9285 24.1493L21.6343 25.6202ZM22.4321 26.7112L20.9413 26.5456L22.4321 26.7112ZM4.68704 17.9327L3.24333 18.3398L4.68704 17.9327ZM5.16387 18.5355L4.43541 19.8467L5.16387 18.5355ZM29.7696 8.58454L30.0949 10.0488L29.7696 8.58454ZM19.9702 25.0115L21.1908 24.1397L19.9702 25.0115ZM20.5878 25.4109L20.2936 26.8818L20.5878 25.4109ZM35.9309 9.7679L35.26 8.42626L35.9309 9.7679ZM17.4158 22.0216L17.5651 20.529L17.4158 22.0216ZM18.13 22.4354L19.3506 21.5635L18.13 22.4354ZM12.9417 21.1694L11.6554 21.9412L12.9417 21.1694ZM13.6996 21.65L13.8489 20.1574L13.6996 21.65ZM13.1484 29.7371L11.6528 29.622L13.1484 29.7371ZM12.5986 28.766L11.9278 30.1076L12.5986 28.766ZM18.1516 5.30228L18.3376 3.81386L18.1516 5.30228ZM17.6441 5.08535L16.6968 6.24839L17.6441 5.08535ZM12.459 20.3649L13.7452 19.5932L12.459 20.3649ZM10.8944 20.1723L9.83369 19.1117L10.8944 20.1723ZM42.5 23C42.5 33.7696 33.7696 42.5 23 42.5V45.5C35.4264 45.5 45.5 35.4264 45.5 23H42.5ZM23 42.5C12.2304 42.5 3.5 33.7696 3.5 23H0.5C0.5 35.4264 10.5736 45.5 23 45.5V42.5ZM3.5 23C3.5 12.2304 12.2304 3.5 23 3.5V0.5C10.5736 0.5 0.5 10.5736 0.5 23H3.5ZM23 3.5C33.7696 3.5 42.5 12.2304 42.5 23H45.5C45.5 10.5736 35.4264 0.5 23 0.5V3.5ZM11.1727 21.1367L11.6554 21.9412L14.2279 20.3977L13.7452 19.5932L11.1727 21.1367ZM13.5504 23.1425L17.2665 23.5141L17.5651 20.529L13.8489 20.1574L13.5504 23.1425ZM16.9094 23.3072L18.7495 25.8834L21.1908 24.1397L19.3506 21.5635L16.9094 23.3072ZM20.2936 26.8818L21.3401 27.0911L21.9285 24.1493L20.8819 23.94L20.2936 26.8818ZM20.9413 26.5456L20.609 29.5356L23.5907 29.8668L23.9229 26.8769L20.9413 26.5456ZM20.7219 29.2707L18.581 31.8397L20.8857 33.7603L23.0265 31.1912L20.7219 29.2707ZM18.6727 31.7393L15.7596 34.6525L17.8809 36.7738L20.794 33.8607L18.6727 31.7393ZM15.0525 36.7738L15.2038 37.8332L18.1736 37.4089L18.0223 36.3495L15.0525 36.7738ZM15.8845 37.2982L15.4809 37.1368L14.3667 39.9222L14.7703 40.0837L15.8845 37.2982ZM15.7293 37.353L14.1881 34.6558L11.5833 36.1442L13.1246 38.8414L15.7293 37.353ZM14.2525 34.9422L14.644 29.8521L11.6528 29.622L11.2613 34.7121L14.2525 34.9422ZM13.2694 27.4243L10.4356 26.0074L9.09399 28.6907L11.9278 30.1076L13.2694 27.4243ZM10.6592 26.231L9.57374 24.0601L6.89046 25.4017L7.97595 27.5727L10.6592 26.231ZM9.6116 24.4049L9.92137 23.1659L7.01094 22.4382L6.70117 23.6773L9.6116 24.4049ZM11.2273 21.9607L11.955 21.233L9.83369 19.1117L9.10601 19.8393L11.2273 21.9607ZM11.1294 17.7828L10.3402 15.9414L7.58273 17.1231L8.37192 18.9646L11.1294 17.7828ZM10.0387 16.6127L13.2077 15.5564L12.259 12.7103L9.09002 13.7666L10.0387 16.6127ZM13.3425 15.5041L17.1841 13.7967L15.9656 11.0553L12.1241 12.7626L13.3425 15.5041ZM18.4666 12.497L19.5489 9.9716L16.7914 8.78984L15.7091 11.3152L18.4666 12.497ZM19.275 10.2389L20.8258 9.61855L19.7117 6.83312L18.1608 7.45345L19.275 10.2389ZM22.2185 8.22583L22.5115 7.49338L19.7261 6.37921L19.4331 7.11166L22.2185 8.22583ZM20.5004 4.08421L18.3376 3.81386L17.9655 6.79069L20.1283 7.06105L20.5004 4.08421ZM18.5913 3.92232L16.4806 2.20314L14.586 4.5292L16.6968 6.24839L18.5913 3.92232ZM2.30367 15.0071L3.24333 18.3398L6.13075 17.5256L5.1911 14.1929L2.30367 15.0071ZM9.78985 23.3981L10.4107 22.7773L8.28934 20.656L7.66853 21.2768L9.78985 23.3981ZM10.4107 22.7773L11.2273 21.9607L9.10601 19.8393L8.28934 20.656L10.4107 22.7773ZM25.826 14.2853L27.1377 12.6457L24.7951 10.7716L23.4834 12.4112L25.826 14.2853ZM26.7473 12.8333H29.5194V9.83333H26.7473V12.8333ZM29.1289 12.6457L30.4678 14.3193L32.8104 12.4452L31.4715 10.7716L29.1289 12.6457ZM31.9297 15.209L35.9274 16.0085L36.5158 13.0668L32.518 12.2672L31.9297 15.209ZM37.4331 15.8416L41.3425 14.1041L40.1241 11.3626L36.2146 13.1002L37.4331 15.8416ZM40.0079 14.0462L40.8524 14.5129L42.3033 11.8871L41.4588 11.4204L40.0079 14.0462ZM40.394 33.1393L38.8202 31.5656L36.6989 33.6869L38.2727 35.2607L40.394 33.1393ZM38.9667 31.9191V30.2361H35.9667V31.9191H38.9667ZM38.7027 29.118L36.1139 23.9403L33.4306 25.282L36.0195 30.4597L38.7027 29.118ZM36.1667 24.1639V22.1132H33.1667V24.1639H36.1667ZM35.4872 20.3998L34.2582 19.0941L32.0736 21.1502L33.3026 22.4559L35.4872 20.3998ZM32.0267 18.3415L30.0126 18.6772L30.5058 21.6364L32.5199 21.3007L32.0267 18.3415ZM30.2657 18.7005L25.97 17.1385L24.9448 19.9578L29.2404 21.5199L30.2657 18.7005ZM26.2967 17.5586L25.9331 13.9232L22.948 14.2217L23.3116 17.8571L26.2967 17.5586ZM26.8676 8.73665L27.4582 7.26004L24.6728 6.14587L24.0821 7.62248L26.8676 8.73665ZM27.092 7.56464L28.8942 7.2042L28.3058 4.26246L26.5037 4.62289L27.092 7.56464ZM29.0922 7.15027L33.1224 5.75027L32.1379 2.91639L28.1078 4.31639L29.0922 7.15027ZM37.2396 7.27913L36.5488 7.81362L38.3845 10.1864L39.0754 9.65189L37.2396 7.27913ZM36.7958 7.65836L35.26 8.42626L36.6017 11.1095L38.1375 10.3416L36.7958 7.65836ZM35.6049 8.3884L30.5928 7.13537L29.8652 10.0458L34.8773 11.2988L35.6049 8.3884ZM29.4442 7.12026L26.1213 7.85868L26.7721 10.7872L30.0949 10.0488L29.4442 7.12026ZM41.2107 33.7901L40.2773 33.0343L38.3893 35.3657L39.3227 36.1215L41.2107 33.7901ZM4.43541 19.8467L8.27154 21.9779L9.72846 19.3554L5.89234 17.2242L4.43541 19.8467ZM8.38428 18.544L7.65836 19.9958L10.3416 21.3375L11.0676 19.8857L8.38428 18.544ZM27.4582 7.26004C27.3954 7.41692 27.2577 7.5315 27.092 7.56464L26.5037 4.62289C25.6752 4.78858 24.9865 5.36146 24.6728 6.14587L27.4582 7.26004ZM24.0821 7.62248C23.833 8.24531 23.8621 8.94496 24.1621 9.54495L26.8454 8.20331C26.9286 8.36976 26.9367 8.56386 26.8676 8.73665L24.0821 7.62248ZM25.97 17.1385C26.1506 17.2041 26.2776 17.3674 26.2967 17.5586L23.3116 17.8571C23.4072 18.813 24.042 19.6295 24.9448 19.9578L25.97 17.1385ZM30.0126 18.6772C30.0976 18.6631 30.1847 18.6711 30.2657 18.7005L29.2404 21.5199C29.6451 21.6671 30.081 21.7072 30.5058 21.6364L30.0126 18.6772ZM34.2582 19.0941C33.6865 18.4867 32.8495 18.2044 32.0267 18.3415L32.5199 21.3007C32.3554 21.3281 32.188 21.2717 32.0736 21.1502L34.2582 19.0941ZM36.1667 22.1132C36.1667 21.4764 35.9236 20.8636 35.4872 20.3998L33.3026 22.4559C33.2153 22.3632 33.1667 22.2406 33.1667 22.1132H36.1667ZM36.1139 23.9403C36.1486 24.0098 36.1667 24.0863 36.1667 24.1639H33.1667C33.1667 24.552 33.257 24.9348 33.4306 25.282L36.1139 23.9403ZM38.9667 30.2361C38.9667 29.848 38.8763 29.4652 38.7027 29.118L36.0195 30.4597C35.9847 30.3902 35.9667 30.3137 35.9667 30.2361H38.9667ZM38.8202 31.5656C38.914 31.6593 38.9667 31.7865 38.9667 31.9191H35.9667C35.9667 32.5822 36.2301 33.218 36.6989 33.6869L38.8202 31.5656ZM35.9274 16.0085C36.4345 16.1099 36.9605 16.0516 37.4331 15.8416L36.2146 13.1002C36.3091 13.0582 36.4144 13.0465 36.5158 13.0668L35.9274 16.0085ZM30.4678 14.3193C30.8353 14.7786 31.3529 15.0936 31.9297 15.209L32.518 12.2672C32.6334 12.2903 32.7369 12.3533 32.8104 12.4452L30.4678 14.3193ZM29.5194 12.8333C29.3675 12.8333 29.2238 12.7643 29.1289 12.6457L31.4715 10.7716C30.9971 10.1786 30.2788 9.83333 29.5194 9.83333V12.8333ZM27.1377 12.6457C27.0428 12.7643 26.8992 12.8333 26.7473 12.8333V9.83333C25.9878 9.83333 25.2695 10.1786 24.7951 10.7716L27.1377 12.6457ZM22.5115 7.49338C23.1199 5.97257 22.1257 4.28738 20.5004 4.08421L20.1283 7.06105C19.8033 7.02041 19.6044 6.68338 19.7261 6.37921L22.5115 7.49338ZM20.8258 9.61855C21.4611 9.36445 21.9644 8.86109 22.2185 8.22583L19.4331 7.11166C19.4839 6.98461 19.5846 6.88394 19.7117 6.83312L20.8258 9.61855ZM19.5489 9.9716C19.4966 10.0935 19.3981 10.1896 19.275 10.2389L18.1608 7.45345C17.5452 7.6997 17.0526 8.18041 16.7914 8.78984L19.5489 9.9716ZM17.1841 13.7967C17.7602 13.5407 18.2182 13.0764 18.4666 12.497L15.7091 11.3152C15.7588 11.1993 15.8504 11.1065 15.9656 11.0553L17.1841 13.7967ZM10.3402 15.9414C10.4554 16.2102 10.3162 16.5202 10.0387 16.6127L9.09002 13.7666C7.70247 14.2291 7.00658 15.7788 7.58273 17.1231L10.3402 15.9414ZM8.37192 18.9646C8.31398 18.8294 8.3185 18.6756 8.38428 18.544L11.0676 19.8857C11.3964 19.2279 11.419 18.4587 11.1294 17.7828L8.37192 18.9646ZM9.92137 23.1659C9.89939 23.2538 9.85393 23.3341 9.78985 23.3981L7.66853 21.2768C7.34813 21.5972 7.12084 21.9987 7.01094 22.4382L9.92137 23.1659ZM9.57374 24.0601C9.62712 24.1668 9.64055 24.2891 9.6116 24.4049L6.70117 23.6773C6.55643 24.2563 6.62357 24.8679 6.89046 25.4017L9.57374 24.0601ZM10.4356 26.0074C10.5324 26.0558 10.6109 26.1343 10.6592 26.231L7.97595 27.5727C8.21786 28.0565 8.61017 28.4488 9.09399 28.6907L10.4356 26.0074ZM14.1881 34.6558C14.2377 34.7426 14.2601 34.8424 14.2525 34.9422L11.2613 34.7121C11.2229 35.2109 11.3351 35.7098 11.5833 36.1442L14.1881 34.6558ZM15.4809 37.1368C15.5857 37.1787 15.6733 37.2549 15.7293 37.353L13.1246 38.8414C13.4047 39.3316 13.8425 39.7126 14.3667 39.9222L15.4809 37.1368ZM15.2038 37.8332C15.1494 37.4524 15.5273 37.1554 15.8845 37.2982L14.7703 40.0837C16.5559 40.7979 18.4456 39.3128 18.1736 37.4089L15.2038 37.8332ZM15.7596 34.6525C15.2031 35.2089 14.9412 35.9948 15.0525 36.7738L18.0223 36.3495C18.0446 36.5053 17.9922 36.6625 17.8809 36.7738L15.7596 34.6525ZM23.4834 12.4112C23.0752 12.9215 22.883 13.5714 22.948 14.2217L25.9331 13.9232C25.9461 14.0532 25.9077 14.1832 25.826 14.2853L23.4834 12.4112ZM20.609 29.5356C20.6199 29.4381 20.6591 29.346 20.7219 29.2707L23.0265 31.1912C23.3404 30.8146 23.5366 30.3541 23.5907 29.8668L20.609 29.5356ZM26.1213 7.85868C26.4131 7.79382 26.7117 7.93591 26.8454 8.20331L24.1621 9.54495C24.644 10.5088 25.7201 11.021 26.7721 10.7872L26.1213 7.85868ZM21.3401 27.0911C21.0858 27.0402 20.9126 26.8033 20.9413 26.5456L23.9229 26.8769C24.0661 25.588 23.2001 24.4036 21.9285 24.1493L21.3401 27.0911ZM3.24333 18.3398C3.42408 18.9808 3.85317 19.5233 4.43541 19.8467L5.89234 17.2242C6.00878 17.2889 6.0946 17.3974 6.13075 17.5256L3.24333 18.3398ZM30.5928 7.13537C30.2163 7.04124 29.823 7.03607 29.4442 7.12026L30.0949 10.0488C30.0192 10.0657 29.9405 10.0646 29.8652 10.0458L30.5928 7.13537ZM18.7495 25.8834C19.1187 26.4002 19.6708 26.7572 20.2936 26.8818L20.8819 23.94C21.0065 23.9649 21.1169 24.0363 21.1908 24.1397L18.7495 25.8834ZM35.26 8.42626C35.3668 8.37288 35.4891 8.35945 35.6049 8.3884L34.8773 11.2988C35.4563 11.4436 36.0679 11.3764 36.6017 11.1095L35.26 8.42626ZM17.2665 23.5141C17.1233 23.4998 16.9931 23.4244 16.9094 23.3072L19.3506 21.5635C18.9322 20.9777 18.2814 20.6007 17.5651 20.529L17.2665 23.5141ZM11.6554 21.9412C12.0618 22.6185 12.7644 23.0639 13.5504 23.1425L13.8489 20.1574C14.0061 20.1731 14.1466 20.2622 14.2279 20.3977L11.6554 21.9412ZM14.644 29.8521C14.722 28.8387 14.1786 27.8789 13.2694 27.4243L11.9278 30.1076C11.7459 30.0167 11.6373 29.8247 11.6528 29.622L14.644 29.8521ZM18.3376 3.81386C18.4307 3.8255 18.5186 3.86308 18.5913 3.92232L16.6968 6.24839C17.0604 6.54459 17.5001 6.73252 17.9655 6.79069L18.3376 3.81386ZM13.7452 19.5932C12.9084 18.1985 10.9838 17.9616 9.83369 19.1117L11.955 21.233C11.725 21.463 11.3401 21.4156 11.1727 21.1367L13.7452 19.5932Z" fill="#9BA4CE"/>
</svg>
