<svg width="60" height="34" viewBox="0 0 60 34" fill="none" xmlns="http://www.w3.org/2000/svg">
<path fill-rule="evenodd" clip-rule="evenodd" d="M30 17C33.866 17 37 13.866 37 10C37 6.13401 33.866 3 30 3C26.134 3 23 6.13401 23 10C23 13.866 26.134 17 30 17ZM20.8085 13.9455C22.339 17.5064 25.8783 20 30 20C34.1217 20 37.661 17.5064 39.1915 13.9455C39.4882 13.2554 39.7093 12.5252 39.8447 11.7653C39.9467 11.1923 40 10.6024 40 10C40 4.47715 35.5228 0 30 0C24.4772 0 20 4.47715 20 10C20 10.6024 20.0533 11.1923 20.1553 11.7653C20.2907 12.5252 20.5119 13.2554 20.8085 13.9455ZM42.7269 12.6633C42.4224 13.3259 42.2058 14.0373 42.092 14.7825C42.0314 15.1795 42 15.5861 42 16C42 20.4183 45.5817 24 50 24C54.4183 24 58 20.4183 58 16C58 11.5817 54.4183 8 50 8C46.7727 8 43.9917 9.91106 42.7269 12.6633ZM17.908 14.7825C17.7942 14.0373 17.5776 13.3259 17.2731 12.6633C16.0083 9.91106 13.2273 8 10 8C5.58172 8 2 11.5817 2 16C2 20.4183 5.58172 24 10 24C14.4183 24 18 20.4183 18 16C18 15.5861 17.9686 15.1795 17.908 14.7825ZM50 21C52.7614 21 55 18.7614 55 16C55 13.2386 52.7614 11 50 11C47.2386 11 45 13.2386 45 16C45 18.7614 47.2386 21 50 21ZM10 21C12.7614 21 15 18.7614 15 16C15 13.2386 12.7614 11 10 11C7.23858 11 5 13.2386 5 16C5 18.7614 7.23858 21 10 21Z" fill="#9BA4CE"/>
<path fill-rule="evenodd" clip-rule="evenodd" d="M30 20.5C24.3118 20.5 19.5 25.5334 19.5 32C19.5 32.8284 18.8284 33.5 18 33.5C17.1716 33.5 16.5 32.8284 16.5 32C16.5 24.1072 22.4334 17.5 30 17.5C37.5666 17.5 43.5 24.1072 43.5 32C43.5 32.8284 42.8284 33.5 42 33.5C41.1716 33.5 40.5 32.8284 40.5 32C40.5 25.5334 35.6882 20.5 30 20.5Z" fill="#9BA4CE"/>
<path fill-rule="evenodd" clip-rule="evenodd" d="M44.0742 25.098C44.3888 25.8239 45.418 26.0394 46.0826 25.6101C47.1481 24.9217 48.4888 24.5 50 24.5C53.7843 24.5 56.5 27.1443 56.5 30C56.5 30.8284 57.1716 31.5 58 31.5C58.8284 31.5 59.5 30.8284 59.5 30C59.5 25.1237 55.0523 21.5 50 21.5C47.8186 21.5 45.7499 22.1755 44.1032 23.3358C43.7171 23.6078 43.6241 24.1269 43.827 24.5535C43.9124 24.7333 43.9949 24.9148 44.0742 25.098ZM15.8968 23.3358C16.2829 23.6078 16.3759 24.1269 16.173 24.5535C16.0876 24.7333 16.0051 24.9148 15.9258 25.098C15.6112 25.8239 14.582 26.0394 13.9174 25.6101C12.8519 24.9217 11.5112 24.5 10 24.5C6.21574 24.5 3.5 27.1443 3.5 30C3.5 30.8284 2.82843 31.5 2 31.5C1.17157 31.5 0.5 30.8284 0.5 30C0.5 25.1237 4.9477 21.5 10 21.5C12.1814 21.5 14.2501 22.1755 15.8968 23.3358ZM43.4251 30.4694C43.2472 28.6609 42.7576 26.9425 42.0121 25.383C41.0615 26.693 40.5 28.2674 40.5 30C40.5 30.8284 41.1716 31.5 42 31.5C42.6645 31.5 43.228 31.0679 43.4251 30.4694ZM16.5749 30.4695C16.772 31.0679 17.3355 31.5 18 31.5C18.8284 31.5 19.5 30.8284 19.5 30C19.5 28.2674 18.9385 26.693 17.9879 25.383C17.2424 26.9425 16.7528 28.6609 16.5749 30.4695Z" fill="#9BA4CE"/>
</svg>
