<svg width="56" height="56" viewBox="0 0 56 56" fill="none" xmlns="http://www.w3.org/2000/svg">
<path d="M50.9891 3.29599C50.2399 5.14002 49.2027 6.92642 47.9925 8.53994C37.2741 -2.58184 19.583 -2.86997 8.51884 7.84843C-2.54531 18.5668 -2.89107 36.258 7.82734 47.3221C8.17309 47.7255 8.57647 48.0713 8.97985 48.417L10.0171 49.339C21.7728 59.2507 39.4063 57.7524 49.3179 45.9967C53.1212 41.5019 55.4263 35.8546 55.8296 29.9767C56.6364 23.004 54.5042 14.0144 50.9891 3.29599ZM13.0137 48.7051C12.2069 49.7424 10.7086 49.8577 9.67136 49.0509C8.6341 48.2441 8.51884 46.7459 9.32561 45.7086C10.1324 44.6713 11.6306 44.5561 12.6679 45.3628C13.6475 46.1696 13.8204 47.6679 13.0137 48.7051ZM50.8162 40.3494C43.9587 49.5119 29.2065 46.4001 19.8135 46.8611C19.8135 46.8611 18.1424 46.9764 16.4712 47.2069C16.4712 47.2069 17.1051 46.9187 17.9119 46.6306C24.5388 44.3256 27.6506 43.8646 31.6844 41.79C39.2334 37.9291 46.7824 29.4581 48.2807 20.699C45.3994 29.1124 36.6402 36.3732 28.6879 39.3121C23.2134 41.329 13.3594 43.2883 13.3594 43.2883L12.956 43.0578C6.27144 39.7731 6.04093 25.2514 18.2576 20.5837C23.6168 18.5092 28.6879 19.6617 34.5081 18.2787C40.6741 16.8381 47.8197 12.228 50.7009 6.17728C53.928 15.916 57.8465 31.014 50.8162 40.3494Z" fill="#F5F6FA"/>
</svg>
