<svg width="28" height="28" viewBox="0 0 28 28" fill="none" xmlns="http://www.w3.org/2000/svg">
<path d="M14.0003 0.666504C6.65232 0.666504 0.666992 6.65183 0.666992 13.9998C0.666992 21.3478 6.65232 27.3332 14.0003 27.3332C21.3483 27.3332 27.3337 21.3478 27.3337 13.9998C27.3337 6.65183 21.3483 0.666504 14.0003 0.666504ZM14.0003 3.33317C19.9072 3.33317 24.667 8.09301 24.667 13.9998C24.667 19.9067 19.9072 24.6665 14.0003 24.6665C8.0935 24.6665 3.33366 19.9067 3.33366 13.9998C3.33366 8.09301 8.0935 3.33317 14.0003 3.33317ZM12.2529 8.6665C10.1996 8.6665 8.26183 8.89534 6.43783 9.354C5.98183 9.46734 5.63835 9.80803 5.63835 10.492C5.63835 11.176 6.09497 11.7473 6.77897 11.6327C7.12031 11.6327 7.23587 11.5181 7.46387 11.5181C8.94653 11.1754 10.6569 10.9478 12.2529 10.9478C15.4463 10.9478 18.7528 11.7452 21.0342 12.9998C21.3755 13.1132 21.4885 13.229 21.7165 13.229C22.4018 13.229 22.8583 12.7724 22.9717 12.0884C22.9717 11.519 22.6321 11.1758 22.2894 10.9478C19.4387 9.46509 15.7876 8.6665 12.2529 8.6665ZM12.0264 12.6587C10.0877 12.6587 8.71989 13.0009 7.35189 13.3436C6.78122 13.5716 6.55241 13.799 6.55241 14.3696C6.55241 14.8256 6.8932 15.2811 7.46387 15.2811C7.69187 15.2811 7.80618 15.2812 8.03418 15.1665C9.06085 14.9385 10.4291 14.7108 11.9118 14.7108C14.8758 14.7108 17.6137 15.3936 19.5524 16.6483C19.7804 16.7616 20.0093 16.8774 20.2373 16.8774C20.8066 16.8774 21.1473 16.4207 21.2633 15.8514C21.2633 15.5101 21.0357 15.1679 20.693 14.9399C18.1837 13.4573 15.2197 12.6587 12.0264 12.6587ZM12.3675 16.6769C10.7715 16.6769 9.28768 16.9046 7.80501 17.2472C7.34901 17.2472 7.12272 17.5881 7.12272 18.0441C7.12272 18.5001 7.4636 18.8436 7.9196 18.8436C8.03426 18.8436 8.26191 18.729 8.48991 18.729C9.62991 18.501 10.9983 18.2733 12.2529 18.2733C14.5329 18.2733 16.7011 18.843 18.4118 19.8696C18.6398 19.983 18.7541 20.0962 18.9821 20.0962C19.3234 20.0962 19.6656 19.87 19.8936 19.2993C19.8936 18.8433 19.6658 18.7278 19.4378 18.4998C17.3845 17.3598 14.9902 16.6769 12.3675 16.6769Z" fill="white"/>
</svg>
