<svg width="640" height="324" viewBox="0 0 640 324" fill="none" xmlns="http://www.w3.org/2000/svg">
<path d="M399.661 214.847L400.015 215.187L360.271 162L399.661 109.153C416.214 86.3167 427.216 78.1729 447.538 70.2922C437.484 66.6703 426.885 64.8472 416.214 64.9047C385.217 64.9047 356.867 79.9588 339.991 103.543L328.305 119.521L288.714 64.9778C273.76 44.855 254.392 28.5263 232.137 17.28C209.883 6.03382 185.352 0.17792 160.479 0.174438H96.5459C107.458 0.214147 118.34 1.34371 129.033 3.54673C167.597 11.4395 201.9 33.5303 225.309 65.5468L296.338 162L225.444 258.444L225.309 258.453C201.9 290.47 167.597 312.56 129.033 320.453C118.34 322.656 107.458 323.786 96.5459 323.826H160.479C185.352 323.822 209.883 317.966 232.137 306.72C254.392 295.474 273.76 279.145 288.714 259.022L328.305 204.479L339.99 220.457C356.866 244.041 385.216 259.095 416.213 259.095C426.884 259.153 437.484 257.33 447.538 253.708C427.216 245.827 416.213 237.683 399.661 214.847Z" fill="#97A0CA"/>
<path d="M128.489 253.551C114.026 258.718 98.5502 260.298 83.3596 258.157C68.169 256.016 53.707 250.218 41.1871 241.249C28.6673 232.28 18.4548 220.401 11.4065 206.61C4.35816 192.818 0.679688 177.517 0.679688 161.989C0.679688 146.46 4.35816 131.159 11.4065 117.367C18.4548 103.576 28.6673 91.6974 41.1871 82.7282C53.707 73.7589 68.169 67.9608 83.3596 65.8201C98.5502 63.6795 114.026 65.2588 128.489 70.4256C109.791 77.1234 93.603 89.5246 82.1535 105.922C70.7039 122.32 64.556 141.907 64.556 161.989C64.556 182.07 70.7039 201.657 82.1535 218.055C93.603 234.452 109.791 246.854 128.489 253.551Z" fill="#97A0CA"/>
<path d="M639.957 162C639.962 183.252 635.83 204.298 627.799 223.933C619.769 243.569 607.995 261.41 593.153 276.438C578.31 291.465 560.688 303.385 541.294 311.516C521.901 319.647 501.114 323.83 480.124 323.826H416.218C426.957 323.832 437.669 322.746 448.194 320.583C520.675 305.644 575.445 239.867 576.024 162C575.445 84.1326 520.607 18.3579 448.126 3.41861C437.615 1.25555 426.916 0.16869 416.19 0.174461H480.124C501.115 0.170099 521.901 4.35286 541.295 12.4838C560.688 20.6148 578.31 32.5346 593.153 47.5623C607.996 62.5901 619.769 80.4314 627.799 100.067C635.83 119.702 639.962 140.748 639.957 162Z" fill="#97A0CA"/>
<path d="M639.957 307.532C639.977 310.739 639.055 313.879 637.308 316.555C635.562 319.23 633.069 321.32 630.148 322.559C627.226 323.797 624.007 324.129 620.899 323.512C617.79 322.895 614.933 321.357 612.69 319.093C610.447 316.829 608.918 313.941 608.299 310.796C607.679 307.651 607.997 304.391 609.211 301.429C610.425 298.467 612.481 295.937 615.118 294.16C617.755 292.383 620.853 291.439 624.021 291.449C626.115 291.43 628.191 291.833 630.129 292.634C632.068 293.435 633.83 294.618 635.312 296.115C636.795 297.611 637.97 299.391 638.767 301.351C639.564 303.311 639.969 305.412 639.957 307.532ZM611.975 307.532C611.975 314.692 617.097 320.379 624.117 320.379C630.946 320.379 635.973 314.692 635.973 307.63C635.973 300.47 630.946 294.685 624.021 294.685C617.096 294.685 611.975 300.47 611.975 307.532Z" fill="#97A0CA"/>
<path d="M624.035 310.026H621.526V315.907H618.226V298.966H624.919C625.649 298.964 626.372 299.107 627.047 299.389C627.722 299.67 628.336 300.083 628.853 300.604C629.371 301.126 629.781 301.745 630.062 302.428C630.343 303.11 630.488 303.842 630.489 304.581C630.47 305.629 630.157 306.65 629.585 307.524C629.014 308.399 628.208 309.09 627.263 309.518L630.967 315.907H627.405L624.035 310.026ZM621.526 307.098H624.919C625.538 307.044 626.116 306.757 626.537 306.293C626.957 305.829 627.191 305.222 627.191 304.592C627.191 303.963 626.957 303.356 626.537 302.892C626.116 302.428 625.538 302.141 624.919 302.087H621.526V307.098Z" fill="#97A0CA"/>
<path d="M574.581 162.075L575.58 161.988V162" fill="#97A0CA"/>
<path d="M575.58 161.901L576.578 161.988L575.58 162.075V161.988V162" fill="#97A0CA"/>
<path d="M575.58 161.901L576.578 161.988L575.58 162.075V161.988V161.901Z" fill="#97A0CA"/>
</svg>
