<svg width="56" height="56" viewBox="0 0 56 56" fill="none" xmlns="http://www.w3.org/2000/svg">
<rect width="56" height="56" rx="28" fill="#25D568"/>
<path d="M36.4934 19.5136C34.2301 17.2492 31.2204 16.0012 28.0138 16C21.4063 16 16.0288 21.3748 16.0264 27.982C16.0252 30.094 16.5772 32.1556 17.6261 33.9724L16 40L22.2799 38.5156C24.0308 39.4708 26.0013 39.9736 28.0078 39.9748H28.0126C34.6189 39.9748 39.9964 34.5988 40 27.9928C40.0024 24.79 38.7567 21.7792 36.4934 19.5136ZM33.8785 32.2648C33.6289 32.9644 32.406 33.6388 31.8564 33.688C31.3068 33.7384 30.7919 33.9364 28.2622 32.9392C25.2177 31.7392 23.2952 28.618 23.1464 28.4188C22.9963 28.2184 21.9235 26.7952 21.9235 25.3216C21.9235 23.848 22.6975 23.1232 22.9723 22.8244C23.2472 22.5244 23.5712 22.45 23.7716 22.45C23.9708 22.45 24.1712 22.45 24.3452 22.4572C24.5588 22.4656 24.7952 22.4764 25.0196 22.9744C25.2861 23.5672 25.8681 25.048 25.9425 25.198C26.0169 25.348 26.0673 25.5232 25.9677 25.7224C25.8681 25.9216 25.8177 26.0464 25.6689 26.2216C25.5189 26.3968 25.3545 26.6116 25.2201 26.746C25.0701 26.8948 24.914 27.058 25.0881 27.3568C25.2633 27.6568 25.8633 28.6372 26.7537 29.4304C27.8986 30.4504 28.8622 30.766 29.1623 30.9172C29.4623 31.0672 29.6363 31.042 29.8115 30.8416C29.9867 30.6424 30.5603 29.968 30.7595 29.668C30.9587 29.368 31.1592 29.4184 31.434 29.518C31.7088 29.6176 33.1813 30.3424 33.4801 30.4924C33.7801 30.6424 33.9793 30.7168 34.0537 30.8416C34.1281 30.9652 34.1281 31.5652 33.8785 32.2648Z" fill="white"/>
</svg>
