<svg width="504" height="410" viewBox="0 0 504 410" fill="none" xmlns="http://www.w3.org/2000/svg">
<g clip-path="url(#clip0_15_4)">
<path d="M142.073 115.259C141.506 133.397 150.42 141.429 150.641 146.53C150.536 147.568 150.188 148.565 149.626 149.439C149.065 150.312 148.305 151.036 147.412 151.55L137.332 158.725C136.028 159.655 134.49 160.189 132.899 160.263C132.56 160.247 126.449 161.728 116.771 139.755C110.866 147.25 103.353 153.272 94.8068 157.359C86.2608 161.447 76.9083 163.492 67.4652 163.338C54.6447 164.051 19.9003 155.939 21.6879 118.326C20.4358 87.6722 48.5101 68.6296 77.5452 70.2391C83.1365 70.2552 94.5553 70.5354 114.55 75.26V62.7518C116.668 41.5632 102.974 25.1231 79.262 27.5895C77.372 27.5975 63.9845 27.1892 43.163 35.6854C37.367 38.3921 36.6268 37.9436 34.6974 37.9436C28.862 37.9436 31.2639 20.7429 32.3821 18.5647C36.485 13.4397 60.6219 3.8704 84.3099 4.00653C100.148 2.58216 115.902 7.55279 128.166 17.844C133.151 23.5142 136.954 30.153 139.346 37.3595C141.737 44.566 142.668 52.1906 142.081 59.7729L142.073 115.259V115.259ZM74.0172 141.196C99.5559 140.82 110.368 125.205 112.833 116.797C114.77 108.749 114.448 103.656 114.448 94.8552C106.832 92.9974 95.8704 90.9714 83.294 90.9554C71.3634 90.0425 49.5732 95.4638 50.4237 116.789C49.4472 130.234 59.1807 141.933 74.0172 141.196V141.196ZM208.617 159.654C202.427 160.231 199.545 155.763 198.631 151.35L159.414 19.5017C158.65 17.2755 158.146 14.9772 157.902 12.6309C157.757 11.6636 157.996 10.6775 158.566 9.88917C159.136 9.10087 159.99 8.57491 160.941 8.42684C161.13 8.39481 159.264 8.42684 178.463 8.42684C185.378 7.72216 187.63 13.2556 188.346 16.7309L216.476 129.505L242.589 16.7309C243.007 14.1524 244.905 7.8663 252.669 8.53095H266.183C267.892 8.38681 274.932 8.13056 276.168 16.835L302.487 131.05L331.522 16.835C331.9 15.0893 333.664 7.73017 341.507 8.53095H357.037C357.706 8.42685 361.88 7.88231 361.171 15.4016C360.833 16.8831 363.857 6.86533 319.631 151.454C318.725 155.867 315.835 160.335 309.645 159.758H294.927C286.311 160.679 285.075 152.023 284.941 151.15L258.828 41.339L233.013 151.038C232.887 151.911 231.651 160.567 223.028 159.646H208.617V159.654ZM423.982 164.163C419.352 164.171 397.27 163.923 378.811 154.321C376.972 153.53 375.406 152.2 374.311 150.503C373.216 148.805 372.642 146.814 372.661 144.784V136.175C372.661 129.409 377.543 130.65 379.614 131.459C387.521 134.71 392.592 137.176 402.302 139.146C431.164 145.176 443.859 137.305 446.969 135.559C457.325 129.305 458.144 114.995 451.104 107.572C442.851 100.533 438.913 100.268 409.264 90.7552C405.61 89.7222 374.85 79.8565 374.779 48.8263C374.299 26.2122 394.506 3.83837 429.526 4.02255C439.504 4.01454 466.09 7.32978 473.288 16.5308C474.351 18.2044 474.878 20.1743 474.8 22.1683V30.2642C474.8 33.8196 473.524 35.5974 470.964 35.5974C464.893 34.9087 454.12 26.6526 432.251 26.989C426.825 26.7007 400.838 27.7177 402.003 46.9845C401.664 62.1673 422.958 67.8608 425.392 68.5175C454.104 77.302 463.704 78.7595 475.099 92.2046C488.597 110.022 481.32 130.882 478.524 136.6C463.499 166.621 424.644 164.179 423.982 164.163V164.163ZM455.64 248.133C400.491 289.549 320.434 311.595 252.079 311.595C159.847 312.213 70.724 277.727 2.22875 214.916C-2.91362 210.2 1.62238 203.737 7.87513 207.333C83.8567 251.529 169.884 274.751 257.418 274.695C322.786 274.338 387.441 260.854 447.67 235.016C456.947 231.012 464.814 241.262 455.64 248.133V248.133ZM478.627 221.475C471.571 212.25 431.944 217.166 414.201 219.321C408.854 219.937 407.949 215.221 412.792 211.737C444.347 189.179 496.172 195.641 502.126 203.225C508.071 210.808 500.511 263.612 470.972 288.836C466.436 292.736 462.097 290.678 464.113 285.553C470.76 268.537 485.683 230.708 478.627 221.475Z" fill="#97A0CA"/>
</g>
<defs>
<clipPath id="clip0_15_4">
<rect width="504" height="410" fill="white"/>
</clipPath>
</defs>
</svg>
