<svg width="42" height="42" viewBox="0 0 42 42" fill="none" xmlns="http://www.w3.org/2000/svg">
<rect width="42" height="42" rx="3" fill="white"/>
<path d="M30.3056 29.3334L25.1135 24.1413C26.3611 22.6435 26.9833 20.7224 26.8505 18.7775C26.7177 16.8327 25.8403 15.0139 24.4007 13.6996C22.9611 12.3852 21.0702 11.6764 19.1213 11.7207C17.1725 11.765 15.3157 12.5589 13.9373 13.9373C12.5589 15.3157 11.765 17.1725 11.7207 19.1213C11.6764 21.0702 12.3852 22.9611 13.6996 24.4007C15.0139 25.8403 16.8327 26.7177 18.7775 26.8505C20.7224 26.9833 22.6435 26.3611 24.1413 25.1135L29.3334 30.3056L30.3056 29.3334ZM13.1181 19.3056C13.1181 18.0818 13.481 16.8855 14.1609 15.868C14.8408 14.8505 15.8071 14.0574 16.9377 13.5891C18.0683 13.1208 19.3124 12.9982 20.5127 13.237C21.713 13.4757 22.8155 14.065 23.6808 14.9304C24.5461 15.7957 25.1354 16.8982 25.3742 18.0985C25.6129 19.2987 25.4904 20.5428 25.0221 21.6734C24.5538 22.8041 23.7607 23.7704 22.7432 24.4503C21.7256 25.1302 20.5294 25.4931 19.3056 25.4931C17.6651 25.4913 16.0924 24.8388 14.9324 23.6788C13.7724 22.5188 13.1199 20.9461 13.1181 19.3056Z" fill="#1A2242"/>
</svg>
