<svg width="58" height="58" viewBox="0 0 58 58" fill="none" xmlns="http://www.w3.org/2000/svg">
<path fill-rule="evenodd" clip-rule="evenodd" d="M33.7728 0.96151C33.3625 0.96151 32.9815 1.04944 32.6298 1.16666C33.3772 1.6649 33.7875 2.32432 33.9926 3.07167C34.0073 3.17425 34.0366 3.24752 34.0513 3.35009C34.066 3.43802 34.0805 3.52594 34.0805 3.61387C34.1392 4.9034 33.7435 5.0646 33.4651 5.8266C33.0401 6.80841 33.1573 7.86349 33.6702 8.71342C33.7142 8.81599 33.7728 8.93322 33.8461 9.0358C33.2892 5.32837 36.3812 4.77152 36.9527 3.61387C36.9967 2.60275 36.1614 1.92867 35.502 1.45974C34.8719 1.07874 34.3004 0.96151 33.7728 0.96151ZM38.4328 1.79678C38.3741 2.13382 38.4181 2.0459 38.4035 2.22175C38.3888 2.33897 38.3888 2.48552 38.3742 2.60275C38.3449 2.71998 38.3155 2.83721 38.2716 2.95444C38.2423 3.07167 38.1983 3.1889 38.1544 3.30613C38.0957 3.42337 38.0518 3.52594 37.9932 3.64317C37.9492 3.70181 37.9199 3.7604 37.8759 3.81902C37.8467 3.86298 37.8173 3.90694 37.788 3.9509C37.7148 4.05349 37.6415 4.15606 37.5682 4.24398C37.4803 4.33191 37.407 4.43448 37.3044 4.50776V4.52243C37.2165 4.5957 37.1286 4.68362 37.026 4.75689C36.7183 4.99135 36.3666 5.16719 36.0442 5.387C35.9416 5.46027 35.8391 5.51889 35.7511 5.60681C35.6486 5.68008 35.5606 5.75335 35.4727 5.84127C35.3701 5.9292 35.2969 6.01712 35.2089 6.1197C35.1357 6.20763 35.0477 6.3102 34.9891 6.41278C34.9159 6.51535 34.8426 6.61793 34.784 6.72051C34.7253 6.83774 34.6814 6.94032 34.6228 7.05755C34.5788 7.17477 34.5349 7.27736 34.5056 7.39458C34.4616 7.52647 34.4323 7.6437 34.403 7.76094C34.3883 7.81958 34.3883 7.89282 34.3737 7.95144C34.359 8.01007 34.359 8.06866 34.3444 8.12728C34.3444 8.24451 34.3297 8.3764 34.3297 8.49363C34.3297 8.58155 34.3297 8.66948 34.3444 8.7574C34.3444 8.87463 34.3591 8.99186 34.3884 9.12374C34.403 9.24097 34.4323 9.35821 34.4616 9.47544C34.5056 9.59267 34.5349 9.7099 34.5789 9.82713C34.6082 9.90041 34.6521 9.97367 34.6814 10.0323L31.3111 8.72809C30.7395 8.5669 30.1827 8.42036 29.6112 8.28848C29.3035 8.21521 28.9957 8.14194 28.688 8.06867C27.8088 7.89282 26.9149 7.76094 26.021 7.67302C25.9917 7.67302 25.977 7.65834 25.9477 7.65834C25.0685 7.57042 24.2039 7.52646 23.3247 7.52646C22.6799 7.52646 22.0351 7.55574 21.405 7.59972C20.5111 7.65836 19.6172 7.77557 18.7234 7.92211C18.5036 7.95139 18.2837 7.99538 18.0639 8.03934C17.6097 8.12726 17.17 8.22984 16.7451 8.33242C16.5253 8.39106 16.3055 8.44965 16.0857 8.50826C15.8659 8.59619 15.6607 8.69877 15.4555 8.78669C15.2943 8.85996 15.1332 8.93323 14.972 9.0065C14.9427 9.02117 14.9133 9.02117 14.8987 9.03579C14.7522 9.10905 14.6203 9.16766 14.4884 9.24094C14.4444 9.25561 14.4151 9.27022 14.3858 9.2849C14.2246 9.35817 14.0634 9.44609 13.9315 9.51936C13.829 9.56332 13.7264 9.62194 13.6385 9.6659C13.5945 9.69519 13.5359 9.72454 13.5066 9.73917C13.3747 9.81244 13.2428 9.88571 13.1256 9.95898C12.9937 10.0322 12.8765 10.1055 12.7739 10.1788C12.6713 10.2521 12.5687 10.3107 12.4808 10.3839C12.4661 10.3986 12.4515 10.3986 12.4368 10.4132C12.3489 10.4719 12.2463 10.5451 12.1584 10.6184C12.1584 10.6184 12.1437 10.6331 12.1291 10.6477C12.0559 10.7063 11.9826 10.7649 11.9093 10.8235C11.88 10.8382 11.8507 10.8675 11.8214 10.8821C11.7481 10.9408 11.6749 11.014 11.6016 11.0727C11.5869 11.1019 11.5576 11.1166 11.543 11.1313C11.455 11.2192 11.3671 11.2925 11.2792 11.3804C11.2645 11.3804 11.2645 11.3951 11.2499 11.4097C11.162 11.483 11.0741 11.5709 10.9861 11.6588C10.9714 11.6735 10.9714 11.6881 10.9568 11.6881C10.8836 11.7614 10.8103 11.8346 10.737 11.9226C10.7077 11.9518 10.6638 11.9812 10.6345 12.0105C10.5612 12.0984 10.4733 12.1863 10.3853 12.2742C10.3707 12.3035 10.3414 12.3182 10.3267 12.3475C10.2095 12.4648 10.1069 12.582 9.98967 12.6992C9.97499 12.7139 9.96038 12.7285 9.9457 12.7432C9.71124 12.9923 9.46212 13.2414 9.19836 13.4612C8.93459 13.6957 8.65616 13.9155 8.37774 14.106C8.08466 14.3111 7.80624 14.487 7.4985 14.6628C7.20542 14.824 6.89769 14.9706 6.57531 15.1024C6.26757 15.2343 5.94519 15.3516 5.62281 15.4541C5.00734 15.586 4.37722 15.8351 3.83503 15.8791C3.7178 15.8791 3.58591 15.9084 3.46868 15.9231C3.3368 15.9523 3.21957 15.9817 3.10234 16.011C2.98511 16.0549 2.86787 16.0989 2.75064 16.1429C2.63341 16.1868 2.51618 16.2455 2.39895 16.3041C2.29637 16.3773 2.17914 16.436 2.07656 16.5092C1.97399 16.5825 1.87141 16.6704 1.78349 16.7583C1.68091 16.8316 1.57833 16.9342 1.49041 17.0221C1.40248 17.1247 1.31456 17.2126 1.24129 17.3152C1.16802 17.4324 1.0801 17.535 1.02148 17.6522C0.948215 17.7548 0.874947 17.872 0.816329 17.9893C0.75769 18.1211 0.699099 18.2384 0.655137 18.3703C0.611175 18.4875 0.567213 18.6194 0.523251 18.7513C0.493967 18.8685 0.464613 18.9857 0.449984 19.1029C0.449984 19.1176 0.435307 19.1322 0.435307 19.1469C0.406022 19.2788 0.406022 19.4547 0.391345 19.5426C0.376669 19.6452 0.362061 19.7331 0.362061 19.8357C0.362061 19.8943 0.362061 19.9675 0.376737 20.0262C0.391413 20.1287 0.406022 20.2167 0.435376 20.3046C0.464661 20.3925 0.494015 20.4804 0.537949 20.5683V20.583C0.581911 20.671 0.64053 20.7589 0.699141 20.8468C0.75778 20.9347 0.816378 21.0226 0.889645 21.1106C0.962913 21.1838 1.05084 21.2718 1.13876 21.345C1.22668 21.433 1.31461 21.5062 1.41718 21.5795C1.76888 21.8872 1.8568 21.9898 2.31107 22.2243C2.38434 22.2682 2.45761 22.2975 2.54554 22.3415C2.56022 22.3415 2.57482 22.3562 2.5895 22.3562C2.5895 22.3854 2.5895 22.4001 2.60418 22.4294C2.61886 22.5467 2.64814 22.6639 2.67745 22.7811C2.70673 22.913 2.75072 23.0303 2.79468 23.1328C2.83864 23.2208 2.86795 23.3087 2.91191 23.3966C2.92659 23.4259 2.9412 23.4552 2.95587 23.4699C3.01451 23.5871 3.0731 23.6897 3.13172 23.7923C3.20499 23.8948 3.27826 23.9974 3.35153 24.1C3.42479 24.1879 3.51272 24.2905 3.60064 24.3784C3.68857 24.4663 3.77649 24.5396 3.87907 24.6275C3.87907 24.6275 3.89375 24.6422 3.90835 24.6422C3.99628 24.7155 4.0842 24.7888 4.17213 24.8474C4.2747 24.9206 4.37728 24.9792 4.49451 25.0379C4.59709 25.0965 4.71432 25.1551 4.83155 25.1991C4.91947 25.243 5.02205 25.2723 5.12463 25.3016C5.13931 25.3163 5.15391 25.3163 5.18327 25.3309C5.2419 25.3456 5.31514 25.3602 5.37376 25.3749C5.3298 26.1662 5.31512 26.9135 5.4324 27.1773C5.56428 27.4704 6.20905 26.5765 6.85383 25.5507C6.7659 26.5619 6.70729 27.7488 6.85383 28.1005C7.01502 28.4669 7.89425 27.3239 8.65626 26.0636C19.0459 23.6604 28.5269 30.8408 29.5234 40.9813C29.3329 39.3987 27.3839 38.5194 26.49 38.7392C26.0504 39.8236 25.3031 41.2157 24.1015 42.0803C24.204 41.1132 24.1601 40.1167 23.9549 39.1495C23.6325 40.4977 23.0024 41.7579 22.1378 42.8423C20.7457 42.9449 19.3536 42.2708 18.6209 41.2597C18.5623 41.2157 18.5476 41.1278 18.5037 41.0692C18.4597 40.9666 18.4157 40.8641 18.3864 40.7615C18.3425 40.6589 18.3132 40.5563 18.2985 40.4537C18.2838 40.3512 18.2838 40.2486 18.2838 40.1314C18.2838 40.0581 18.2838 39.9848 18.2838 39.9115C18.2985 39.809 18.3278 39.7064 18.3571 39.6038C18.3864 39.5012 18.4157 39.3987 18.4597 39.2961C18.5183 39.1935 18.5623 39.0909 18.6355 38.9884C18.8846 38.285 18.8846 37.7135 18.4304 37.3764C18.3424 37.3178 18.2545 37.2738 18.1519 37.2299C18.0933 37.2152 18.0201 37.1859 17.9614 37.1712C17.9175 37.1566 17.8882 37.142 17.8442 37.1273C17.7416 37.098 17.6391 37.0686 17.5365 37.054C17.4339 37.0247 17.3313 37.0101 17.2288 37.0101C17.1262 36.9954 17.0089 36.9808 16.9064 36.9808C16.8331 36.9808 16.7598 36.9954 16.6866 36.9954C16.5693 36.9954 16.4667 37.0101 16.3642 37.0394C16.2616 37.0541 16.159 37.0687 16.0564 37.098C15.9539 37.1273 15.8513 37.1567 15.7487 37.2006C15.6461 37.2446 15.5582 37.2885 15.4556 37.3325C15.3677 37.3765 15.2798 37.4351 15.1772 37.479C11.7628 39.7064 13.7997 44.9232 16.1297 46.4326C15.2505 46.5938 14.3566 46.7843 14.1075 46.9748C14.0928 46.9894 14.0782 47.004 14.0782 47.004C14.7083 47.385 15.3677 47.7074 16.0565 47.9858C16.9943 48.2936 17.9908 48.572 18.4304 48.6892V48.7039C19.6467 48.953 20.8776 49.041 22.1232 48.9677C28.6149 48.5134 33.9342 43.5751 34.9014 37.0687C34.9307 37.2006 34.96 37.3178 34.9893 37.4497C35.0333 37.7135 35.0919 37.9919 35.1212 38.2703V38.285C35.1505 38.4169 35.1651 38.5488 35.1798 38.666V38.7247C35.1945 38.8566 35.2091 38.9884 35.2091 39.1057C35.2238 39.2669 35.2384 39.4281 35.2384 39.5893V39.8237C35.2384 39.897 35.2531 39.9849 35.2531 40.0582C35.2531 40.1461 35.2384 40.234 35.2384 40.3219V40.5271C35.2384 40.6297 35.2237 40.7176 35.2237 40.8202C35.2237 40.8788 35.2237 40.9374 35.209 41.0107C35.209 41.1133 35.1943 41.2158 35.1943 41.3331C35.1797 41.377 35.1797 41.421 35.1797 41.465C35.165 41.5822 35.1504 41.6848 35.1357 41.802C35.1357 41.846 35.1357 41.8899 35.121 41.9339C35.1063 42.0804 35.0771 42.2123 35.0624 42.3588V42.3735V42.3882C35.0331 42.5201 35.0037 42.6666 34.9745 42.7985V42.8425C34.9452 42.9744 34.9158 43.1063 34.8865 43.2381C34.8865 43.2528 34.8719 43.2821 34.8719 43.2968C34.8426 43.4287 34.8132 43.5605 34.7693 43.6924V43.7364C34.7253 43.8829 34.6814 44.0148 34.6521 44.1467C34.6374 44.1614 34.6374 44.176 34.6374 44.176C34.5934 44.3225 34.5495 44.4691 34.5055 44.6156C34.4469 44.7621 34.4029 44.894 34.3443 45.0406C34.2857 45.1871 34.2417 45.3336 34.1831 45.4655C34.1245 45.6121 34.0659 45.7439 34.0073 45.8905H33.9926C33.9339 46.0224 33.8753 46.1689 33.8021 46.3008C33.7874 46.3448 33.7728 46.3741 33.7581 46.4034C33.7434 46.4181 33.7434 46.4327 33.7288 46.4473C32.7763 48.367 31.3695 50.0522 29.6111 51.371C29.4938 51.4443 29.3766 51.5322 29.2594 51.6202C29.2301 51.6494 29.1861 51.6641 29.1568 51.6934C29.0542 51.7667 28.9517 51.84 28.8344 51.9132L28.8784 52.0012H28.8931C29.0982 51.9719 29.3034 51.9425 29.5085 51.9132H29.5232C29.9042 51.8546 30.2852 51.7813 30.6662 51.7081C30.7688 51.6934 30.886 51.6641 30.9886 51.6348C31.0619 51.6201 31.1205 51.6055 31.1937 51.5908C31.2963 51.5761 31.3989 51.5469 31.5015 51.5322C31.5894 51.5029 31.6773 51.4882 31.7652 51.4589C33.2306 51.1072 34.6521 50.6237 36.0149 50.0522C33.6849 53.2321 30.5636 55.7965 26.9148 57.4817C28.6 57.3644 30.2852 57.086 31.9118 56.6171C37.8173 54.8733 42.785 50.9021 45.7597 45.5534C45.1589 48.9385 43.8107 52.1623 41.8178 54.9759C43.2392 54.038 44.5434 52.9536 45.7304 51.7227C49.0129 48.2937 51.167 43.9415 51.8997 39.2669C52.3979 41.5822 52.5445 43.9708 52.3246 46.3301C62.9048 31.5736 53.2039 16.2749 49.1448 12.2451C49.1301 12.2158 49.1155 12.2012 49.1155 12.1719C49.1008 12.1865 49.1008 12.1865 49.1008 12.2011C49.1008 12.1865 49.1008 12.1865 49.0861 12.1719C49.0861 12.3477 49.0714 12.5236 49.0568 12.6994C49.0129 13.0364 48.9689 13.3588 48.9103 13.6812C48.837 14.0036 48.7491 14.326 48.6612 14.6484C48.5586 14.9561 48.4414 15.2785 48.3095 15.5862C48.1776 15.8793 48.031 16.187 47.8699 16.4801C47.7087 16.7585 47.5328 17.0516 47.3423 17.3154C47.1518 17.5938 46.9467 17.8576 46.7415 18.1067C46.5217 18.3705 46.2872 18.6049 46.0528 18.8394C45.9062 18.9713 45.7743 19.0885 45.6278 19.2057C45.5106 19.3083 45.408 19.3962 45.2908 19.4988C45.027 19.704 44.7632 19.8945 44.4701 20.0703C44.1917 20.2462 43.8987 20.422 43.6056 20.5685C43.2978 20.7151 42.9901 20.847 42.6824 20.9788C42.3746 21.0961 42.0523 21.1987 41.7299 21.2866C41.4075 21.3745 41.0704 21.4478 40.7481 21.5064C40.411 21.565 40.074 21.5943 39.7516 21.6236C39.5171 21.6383 39.2827 21.6529 39.0482 21.6529C38.7112 21.6529 38.3741 21.6236 38.0517 21.5943C37.7147 21.565 37.3777 21.521 37.0553 21.4477C36.7182 21.3891 36.3959 21.3012 36.0735 21.1986H36.0588C36.3812 21.1693 36.7036 21.14 37.026 21.0814C37.363 21.0227 37.6854 20.9495 38.0078 20.8616C38.3301 20.7736 38.6525 20.6711 38.9603 20.5538C39.2826 20.4366 39.5904 20.2901 39.8835 20.1435C40.1912 19.997 40.4696 19.8358 40.7627 19.6599C41.0411 19.4694 41.3195 19.279 41.5833 19.0738C41.8471 18.8686 42.0962 18.6488 42.3307 18.4144C42.5798 18.1946 42.7996 17.9454 43.0194 17.6963C43.2392 17.4326 43.4444 17.1688 43.6349 16.905C43.6641 16.8611 43.6935 16.8024 43.7228 16.7585C43.8693 16.524 44.0159 16.2896 44.1477 16.0551C44.3089 15.762 44.4555 15.4689 44.5874 15.1612C44.7192 14.8535 44.8365 14.5457 44.9391 14.2234C45.0416 13.9156 45.1149 13.5932 45.1882 13.2709C45.2468 12.9338 45.3054 12.6114 45.3347 12.289C45.364 11.952 45.3933 11.615 45.3933 11.2926C45.3933 11.0581 45.3787 10.8237 45.3641 10.5892C45.3348 10.2522 45.2908 9.92977 45.2468 9.60739C45.1882 9.27034 45.1149 8.94796 45.027 8.62557C44.9244 8.31784 44.8219 7.99546 44.7046 7.68773C44.5874 7.37999 44.4409 7.07226 44.2943 6.77918C44.1331 6.4861 43.9719 6.19303 43.7961 5.91461C43.6056 5.63619 43.4151 5.37241 43.2099 5.10864C42.9901 4.85952 42.7703 4.61041 42.5359 4.36129C42.4186 4.24406 42.2867 4.11218 42.1549 3.99495C41.4954 3.48206 40.8067 2.99848 40.118 2.55887C40.0154 2.50023 39.9275 2.45629 39.8249 2.41232C39.3413 2.1046 38.887 1.9434 38.4328 1.79686L38.4328 1.79678Z" fill="#F5F6FA"/>
</svg>
