<svg width="31" height="39" viewBox="0 0 31 39" fill="none" xmlns="http://www.w3.org/2000/svg">
<path fill-rule="evenodd" clip-rule="evenodd" d="M26.0532 16.2351C26.3938 15.4317 26.6477 14.5816 26.8031 13.697C26.9203 13.0298 26.9815 12.3431 26.9815 11.6418C26.9815 5.21221 21.841 0 15.5 0C9.15895 0 4.01852 5.21221 4.01852 11.6418C4.01852 12.3431 4.07967 13.0298 4.19686 13.697C4.35226 14.5816 4.6062 15.4317 4.94676 16.2351C5.90328 18.4915 7.54312 20.3799 9.60218 21.6323C3.91873 24.1766 0 30.2847 0 37.2537C0 38.2182 0.771065 39 1.72222 39C2.67338 39 3.44444 38.2182 3.44444 37.2537C3.44444 29.7255 8.9691 23.8657 15.5 23.8657C22.0309 23.8657 27.5556 29.7255 27.5556 37.2537C27.5556 38.2182 28.3266 39 29.2778 39C30.2289 39 31 38.2182 31 37.2537C31 30.2847 27.0813 24.1766 21.3978 21.6323C23.4569 20.3799 25.0967 18.4915 26.0532 16.2351ZM15.5 19.791C19.9387 19.791 23.537 16.1425 23.537 11.6418C23.537 7.14108 19.9387 3.49254 15.5 3.49254C11.0613 3.49254 7.46296 7.14108 7.46296 11.6418C7.46296 16.1425 11.0613 19.791 15.5 19.791Z" fill="#F5F6FA"/>
</svg>
