<svg width="40" height="37" viewBox="0 0 40 37" fill="none" xmlns="http://www.w3.org/2000/svg">
<path fill-rule="evenodd" clip-rule="evenodd" d="M5.85248 25.405C5.09094 23.8432 4.3314 22.2841 3.57186 20.7274C2.81831 22.6714 4.18149 25.4831 5.85248 25.405ZM18.9766 3.22127C18.9626 3.15575 18.9486 3.09079 18.9366 3.02545C18.7568 2.96559 18.5829 2.88657 18.397 2.84934C17.6194 2.69294 16.8339 2.56994 16.0604 2.39675C14.3474 2.0135 13.4519 2.95063 12.7464 3.98868C12.5385 4.29399 12.6824 4.52029 13.0781 4.5661C13.256 4.58617 13.4439 4.58891 13.6158 4.55278C15.1509 4.23067 16.682 3.90619 18.2111 3.56017C18.4789 3.49922 18.7208 3.33661 18.9766 3.22127ZM34.1535 13.8257C34.2395 14.0721 34.3394 14.3672 34.4473 14.6601C34.8091 15.6443 35.1429 16.6385 35.5547 17.6054C35.6866 17.9133 36.0264 18.1467 36.2702 18.4142C36.5421 18.1684 36.8719 17.9572 37.0678 17.6689C37.3496 17.2532 37.5635 16.7915 37.7433 16.3294C37.8073 16.1679 37.7633 15.8833 37.6414 15.764C36.9179 15.0566 36.1623 14.3754 35.4028 13.6998C35.2369 13.5505 35.023 13.4207 34.8051 13.3488C34.4053 13.2178 34.2035 13.4056 34.1535 13.8257ZM3.28604 18.3133C3.36799 18.3104 3.44793 18.3073 3.52788 18.3044C4.10554 16.3903 4.68919 14.4785 5.25085 12.5608C5.40476 12.0339 5.54068 11.4939 5.59065 10.9524C5.61264 10.6993 5.47471 10.3644 5.27683 10.1936C5.17489 10.1047 4.75315 10.2427 4.53128 10.3628C3.19808 11.0815 2.69438 12.1843 2.80831 13.5631C2.88427 14.4927 2.92225 15.4253 3.0122 16.3544C3.07416 17.0095 3.19409 17.6605 3.28604 18.3133ZM15.8605 33.4584C15.6286 33.0953 15.5167 32.867 15.3568 32.6733C14.7252 31.9154 13.9756 31.2232 13.4579 30.4071C12.1947 28.4135 10.2499 27.3672 7.89926 26.8113C7.73936 26.7734 7.57945 26.737 7.3356 26.6807C7.40356 26.8385 7.41755 26.9113 7.46152 26.9666C9.47831 29.6001 11.9269 31.8004 15.083 33.2874C15.2589 33.3697 15.4747 33.3767 15.8605 33.4584ZM24.971 3.00009C24.967 3.0302 24.965 3.06013 24.963 3.09042C24.4813 3.09042 23.9956 3.05502 23.5219 3.10301C23.2261 3.13313 22.9462 3.28934 22.6604 3.38898C22.8703 3.60653 23.0342 3.89378 23.294 4.03083C25.6526 5.27109 27.7993 6.76173 29.7701 8.469C29.928 8.6066 30.1059 8.73362 30.2938 8.83345C30.6936 9.04387 30.8935 8.94131 30.9155 8.5201C30.9234 8.35822 30.9294 8.17755 30.8615 8.03356C30.2159 6.64274 29.5863 5.24481 28.8747 3.88228C28.7328 3.61382 28.287 3.37439 27.9432 3.31836C26.9638 3.15813 25.9624 3.099 24.971 3.00009ZM30.4697 21.9266C30.4397 23.0716 30.8575 23.3203 31.731 22.9398C31.7829 22.9164 31.8429 22.8956 31.8869 22.8615C32.8283 22.1518 33.8177 21.4871 34.6932 20.7139C35.3868 20.0998 35.7066 19.2439 35.3608 18.3896C34.6852 16.7122 33.9117 15.0676 33.1401 13.4247C33.0422 13.218 32.7104 13.1035 32.4865 12.9466C32.3406 13.1847 32.1087 13.4094 32.0608 13.6631C31.7649 15.1908 31.5311 16.7278 31.2413 18.2558C30.9914 19.5676 30.6936 20.8714 30.4697 21.9266ZM20.3018 3.54174C19.2485 3.81676 18.2151 4.0332 17.2277 4.36462C16.5401 4.59512 15.8885 4.94241 15.2768 5.31525C14.7831 5.61619 14.8291 6.03174 15.3248 6.33761C15.5527 6.47831 15.8185 6.59785 16.0863 6.65023C16.9438 6.81886 17.8053 6.98237 18.6728 7.09351C21.8849 7.5034 25.069 8.00746 28.0891 9.15373C28.4729 9.29918 28.9426 9.25301 29.3744 9.29572C29.1745 8.9382 29.0466 8.52083 28.7607 8.23285C27.0878 6.5389 25.043 5.28459 22.8163 4.28907C22.0388 3.94196 21.1593 3.79012 20.3018 3.54174ZM10.6776 26.6022C10.6596 26.5471 10.6256 26.4045 10.5637 26.2726C9.11053 23.1824 8.23705 19.9479 7.6514 16.6378C7.50749 15.8302 7.31162 15.0227 7.03978 14.2441C6.82791 13.6375 6.31621 13.5831 5.85649 14.0593C5.64461 14.2766 5.42075 14.5163 5.32081 14.7827C4.75115 16.2795 4.21748 17.7868 3.6798 19.2935C3.64782 19.3873 3.6778 19.5089 3.70578 19.611C4.28544 21.758 5.1669 23.7864 6.54607 25.6171C6.658 25.7647 6.79593 25.9364 6.96383 26.0018C7.97722 26.391 8.99461 26.7726 10.028 27.1119C10.3558 27.2198 10.6796 27.1148 10.6776 26.6022ZM18.387 33.6835C18.7687 33.5867 19.1845 33.5504 19.5263 33.3851C21.7929 32.2879 23.7557 30.8593 25.1709 28.8736C25.7246 28.0976 25.4507 27.5793 24.4234 27.5194C23.7897 27.4822 23.1381 27.5391 22.5105 27.6371C19.5143 28.1043 16.5101 28.3219 13.4719 28.0758C13.2141 28.055 12.8123 28.1749 12.7044 28.348C12.5965 28.5204 12.6884 28.9 12.8403 29.0882C13.7378 30.1917 14.6352 31.2975 15.6166 32.3385C16.3182 33.0858 17.2077 33.6302 18.387 33.6835ZM15.8265 27.8432C17.2137 27.7223 18.8107 27.6893 20.3558 27.4158C21.5931 27.1966 22.8123 26.7695 23.9576 26.2777C24.9311 25.8596 25.1869 25.1057 24.7731 24.195C24.4713 23.5311 24.0935 22.8411 23.5559 22.3308C20.7096 19.6218 17.8333 16.936 14.8991 14.3075C13.8277 13.3492 12.5685 12.5635 11.0454 12.2569C10.3478 12.117 9.72817 12.2909 9.37838 12.8577C9.06856 13.3587 8.81871 13.9155 8.68479 14.4759C8.23106 16.3898 8.46692 18.2958 8.90466 20.1872C9.38237 22.2534 10.1099 24.2397 11.1993 26.1102C11.7529 27.0584 12.6024 27.5889 13.7757 27.6837C14.3934 27.7333 15.011 27.7797 15.8265 27.8432ZM18.2431 7.62623C17.3476 7.68937 16.5221 7.70689 15.7126 7.81329C14.3014 7.99852 13.5399 8.94131 13.7238 10.2261C13.8917 11.3955 14.5952 12.3451 15.3548 13.2433C17.7633 16.0965 20.4757 18.6931 23.4719 21.0358C24.2594 21.6521 25.091 22.2427 25.9824 22.7239C27.1337 23.3462 28.4449 23.092 29.2445 22.1131C29.6922 21.5656 30.062 20.9312 30.3038 20.2852C31.0814 18.2131 31.4331 16.0766 31.4251 13.8755C31.4212 12.3976 30.7835 11.301 29.4763 10.4955C26.0584 8.38779 22.1707 7.82734 18.2431 7.62623ZM21.9788 37C18.9406 35.5075 15.6866 35.425 12.3566 35.7807C12.3566 35.7333 12.3566 35.6855 12.3566 35.6378C13.1081 35.5522 13.8597 35.4699 14.6112 35.3787C14.8071 35.3548 15.011 35.3272 15.1909 35.2599C15.8565 35.0137 15.9524 34.5346 15.3848 34.1322C14.7052 33.6492 13.9916 33.2029 13.278 32.7598C10.7535 31.1935 8.6648 29.2354 6.98581 26.9166C6.38217 26.0841 5.48271 25.6738 4.52129 25.3342C3.86169 25.1004 3.57985 25.3251 3.63782 25.9696C3.78373 27.6293 4.27144 29.2015 5.04498 30.7053C5.11094 30.8336 5.16291 30.9684 5.12093 31.1502C4.97502 30.9267 4.78114 30.7179 4.69519 30.4762C4.1875 29.0544 3.73976 27.6152 3.20608 26.202C2.89027 25.3652 2.52848 24.5281 2.05476 23.7594C1.56506 22.9654 0.907463 22.2576 0.337805 21.5041C0.173903 21.2878 0.0559664 21.0422 0 20.7677C0.34979 21.2055 0.673592 21.6627 1.05536 22.0748C1.30921 22.3492 1.62102 22.5998 1.95482 22.7887C2.54247 23.1205 2.8443 22.9898 2.94624 22.3586C3.1821 20.9159 3.28803 19.4922 2.98821 18.0177C2.6644 16.4274 2.64042 14.7864 2.47252 13.1683C2.44853 12.9528 2.33661 12.7447 2.26665 12.533C2.07676 12.6783 1.83691 12.7935 1.70698 12.9743C1.19129 13.6842 0.711585 14.4153 0.121939 15.0946C0.467731 14.5055 0.721579 13.8525 1.17131 13.3395C2.3466 11.9972 2.87229 10.4243 3.33001 8.80936C3.46193 8.33979 3.64782 7.88282 3.91566 7.44957C3.71378 8.1416 3.47192 8.82633 3.328 9.52804C3.26004 9.85708 3.37599 10.2181 3.40997 10.5648C3.70779 10.4111 4.06157 10.3073 4.29543 10.0949C4.97702 9.47621 5.6626 8.85079 6.25224 8.1604C7.07175 7.20046 7.27163 6.11368 6.74195 4.95701C6.71397 4.89569 6.71996 4.8216 6.69198 4.64184C6.95382 4.73491 7.14972 4.78711 7.32761 4.87014C8.57287 5.45103 9.78413 5.36708 10.8995 4.63235C11.645 4.14198 12.3286 3.57094 13.0082 3.00191C13.1701 2.86467 13.294 2.57778 13.256 2.38981C13.2341 2.27502 12.8663 2.14545 12.6544 2.14873C11.8989 2.16005 11.1433 2.22538 10.3858 2.2513C11.7709 2.05657 13.2101 2.01313 14.5253 1.62368C15.8545 1.23022 17.0618 0.493656 18.373 0C17.7074 0.319008 17.0398 0.634182 16.3762 0.959209C16.1823 1.05411 15.9904 1.16142 15.8245 1.29081C15.4367 1.59156 15.4787 1.84286 15.9604 2.01569C16.2383 2.11515 16.5361 2.16625 16.8299 2.22647C19.2185 2.72013 21.611 3.09079 24.0876 2.8873C25.1349 2.80134 26.2063 2.98421 27.2676 3.01487C27.5255 3.02198 27.7853 2.91011 28.0452 2.85299C27.9532 2.6402 27.8953 2.40678 27.7613 2.21899C27.4675 1.81184 27.1357 1.42786 26.8999 0.972713C27.2896 1.37768 27.6974 1.76968 28.0652 2.1907C28.5849 2.78638 29.2404 3.16105 30.038 3.37731C30.8035 3.58554 31.5531 3.84779 32.3046 4.10128C32.5405 4.18103 32.7564 4.30951 33.0182 4.43251C31.9468 4.13504 30.9275 3.84158 29.9001 3.57222C29.4963 3.466 29.2904 3.60835 29.4823 4.00182C30.5097 6.12445 31.5091 8.26041 32.6024 10.3548C32.9203 10.9637 33.4719 11.495 34.0016 11.9854C35.2129 13.1077 36.4761 14.183 37.7194 15.2762C37.8033 15.3492 37.8973 15.4107 38.1091 15.5673C38.401 14.4524 38.6688 13.4207 38.9386 12.3892C38.9546 12.385 38.9706 12.3807 38.9866 12.3765C38.9866 12.5814 39.0086 12.7891 38.9806 12.9909C38.9446 13.2433 38.9007 13.5021 38.8047 13.7395C38.2231 15.1723 38.345 16.4876 39.4683 17.6914C39.7162 17.9593 39.8201 18.3436 39.976 18.6801C40.012 18.7584 39.992 18.859 40 18.9825C39.4144 18.0709 38.8507 17.1898 38.2091 16.1894C37.1117 18.1821 36.2303 20.0034 36.658 22.154C37.1677 24.7104 36.7 27.2135 35.9284 29.6795C35.8885 29.8078 35.7945 29.9218 35.7985 29.9132C36.0204 28.3348 36.3382 26.6443 36.4621 24.9424C36.5381 23.8784 36.4082 22.783 36.2083 21.7275C36.0284 20.7747 35.4767 20.6245 34.7112 21.294C33.6278 22.2434 32.5685 23.2287 31.615 24.2854C30.6216 25.3846 30.6996 26.6055 31.7789 27.6692C32.7184 28.5954 33.7557 29.4386 34.7491 30.3195C34.8771 30.4337 35.001 30.5542 35.1269 30.6717C35.0929 30.7064 35.059 30.7412 35.025 30.7766C34.9031 30.7049 34.7751 30.6396 34.6592 30.5609C33.7038 29.9207 32.7783 29.2444 31.7949 28.6434C29.7681 27.4026 28.1751 27.4791 26.3162 28.9122C24.7991 30.082 23.334 31.3103 21.8249 32.4886C21.3092 32.8925 20.6956 33.1942 20.1839 33.6015C19.938 33.7961 19.6762 34.1421 19.7022 34.3954C19.7222 34.5881 20.1579 34.8193 20.4537 34.9024C22.6044 35.5061 24.8031 35.4625 27.0058 35.2201C27.7374 35.1394 28.4689 35.0475 29.2165 35.0865C27.9153 35.2332 26.618 35.4628 25.3108 35.505C23.7537 35.5553 22.1867 35.4331 20.6256 35.4165C20.3678 35.4135 20.1079 35.5665 19.8501 35.6473C20.028 35.845 20.1659 36.1001 20.3918 36.2291C20.8975 36.5193 21.4471 36.7471 21.9788 37Z" fill="#4052A1"/>
</svg>
